<svg width="107" height="52" viewBox="0 0 107 52" fill="none" xmlns="http://www.w3.org/2000/svg">
<path d="M107 26C107 11.6406 95.3594 0 81 0H26C11.6406 0 0 11.6406 0 26C0 40.3594 11.6406 52 26 52H81C95.3594 52 107 40.3594 107 26Z" fill="#232323"/>
<path d="M81 0.5H26C11.9167 0.5 0.5 11.9167 0.5 26C0.5 40.0833 11.9167 51.5 26 51.5H81C95.0833 51.5 106.5 40.0833 106.5 26C106.5 11.9167 95.0833 0.5 81 0.5Z" stroke="white" stroke-opacity="0.5"/>
<path d="M66.6407 25.1009L58.0497 16.3509C57.8182 16.1232 57.5082 15.9972 57.1864 16C56.8646 16.0029 56.5568 16.1344 56.3292 16.3661C56.1017 16.5979 55.9726 16.9114 55.9698 17.2391C55.967 17.5669 56.0907 17.8826 56.3143 18.1184L62.8103 24.7346H41.2273C40.9018 24.7346 40.5896 24.8663 40.3595 25.1008C40.1293 25.3352 40 25.6531 40 25.9846C40 26.3162 40.1293 26.6341 40.3595 26.8685C40.5896 27.1029 40.9018 27.2346 41.2273 27.2346H62.8103L56.3143 33.8509C56.1971 33.9662 56.1036 34.1041 56.0393 34.2566C55.9749 34.4091 55.9411 34.5732 55.9397 34.7391C55.9382 34.9051 55.9693 35.0697 56.031 35.2233C56.0927 35.377 56.1838 35.5165 56.2991 35.6339C56.4143 35.7512 56.5513 35.8441 56.7022 35.9069C56.853 35.9698 57.0146 36.0014 57.1776 36C57.3405 35.9985 57.5016 35.964 57.6513 35.8985C57.801 35.833 57.9365 35.7378 58.0497 35.6184L66.6407 26.8684C66.8708 26.634 67 26.3161 67 25.9846C67 25.6532 66.8708 25.3353 66.6407 25.1009Z" fill="white"/>
</svg>
