<svg width="107" height="52" viewBox="0 0 107 52" fill="none" xmlns="http://www.w3.org/2000/svg">
<path d="M0 26C0 11.6406 11.6406 0 26 0H81C95.3594 0 107 11.6406 107 26C107 40.3594 95.3594 52 81 52H26C11.6406 52 0 40.3594 0 26Z" fill="#232323"/>
<path d="M26 0.5H81C95.0833 0.5 106.5 11.9167 106.5 26C106.5 40.0833 95.0833 51.5 81 51.5H26C11.9167 51.5 0.5 40.0833 0.5 26C0.5 11.9167 11.9167 0.5 26 0.5Z" stroke="white" stroke-opacity="0.5"/>
<path d="M40.3593 25.1009L48.9503 16.3509C49.1818 16.1232 49.4918 15.9972 49.8136 16C50.1354 16.0029 50.4432 16.1344 50.6708 16.3661C50.8983 16.5979 51.0274 16.9114 51.0302 17.2391C51.033 17.5669 50.9093 17.8826 50.6857 18.1184L44.1897 24.7346H65.7727C66.0982 24.7346 66.4104 24.8663 66.6405 25.1008C66.8707 25.3352 67 25.6531 67 25.9846C67 26.3162 66.8707 26.6341 66.6405 26.8685C66.4104 27.1029 66.0982 27.2346 65.7727 27.2346H44.1897L50.6857 33.8509C50.8029 33.9662 50.8964 34.1041 50.9607 34.2566C51.0251 34.4091 51.0589 34.5732 51.0603 34.7391C51.0618 34.9051 51.0307 35.0697 50.969 35.2233C50.9073 35.377 50.8162 35.5165 50.7009 35.6339C50.5857 35.7512 50.4487 35.8441 50.2978 35.9069C50.147 35.9698 49.9854 36.0014 49.8224 36C49.6595 35.9985 49.4984 35.964 49.3487 35.8985C49.199 35.833 49.0635 35.7378 48.9503 35.6184L40.3593 26.8684C40.1292 26.634 40 26.3161 40 25.9846C40 25.6532 40.1292 25.3353 40.3593 25.1009Z" fill="white"/>
</svg>
