<svg width="29" height="16" viewBox="0 0 29 16" fill="none" xmlns="http://www.w3.org/2000/svg">
<path d="M1.78581 9.16089L21.0316 11.2976L19.3512 14.1712C18.8413 15.0464 19.9423 15.9624 20.7101 15.3049L28.4371 8.68244C28.5352 8.59809 28.614 8.49352 28.668 8.3759C28.722 8.25828 28.75 8.13038 28.75 8.00095C28.75 7.87152 28.722 7.74362 28.668 7.626C28.614 7.50837 28.5352 7.40381 28.4371 7.31945L20.7101 0.697042C19.9417 0.035968 18.8413 0.95552 19.3512 1.82723L21.0281 4.70433L1.78581 6.83809C0.405314 6.98746 0.404147 9.01094 1.78581 9.16089Z" fill="url(#paint0_linear_985_7791)"/>
<defs>
<linearGradient id="paint0_linear_985_7791" x1="14.75" y1="0.47168" x2="14.75" y2="15.5287" gradientUnits="userSpaceOnUse">
<stop stop-color="#E72125"/>
<stop offset="1" stop-color="#8E1D1D"/>
</linearGradient>
</defs>
</svg>
