<svg width="63" height="62" viewBox="0 0 63 62" fill="none" xmlns="http://www.w3.org/2000/svg">
<circle cx="31.75" cy="31" r="31" fill="url(#paint0_linear_985_7800)"/>
<path d="M25.8042 13.1978L27.3939 18.8443L24.0859 21.6232C24.0859 21.6232 22.9604 25.9404 27.8741 33.6185C32.2457 40.4324 37.8221 41.3796 37.8221 41.3796L41.3966 38.9768L46.0685 42.3075C46.0685 42.3075 47.4028 44.736 45.8651 46.8874C43.8978 49.6504 40.6468 49.9125 40.6468 49.9125C36.7622 50.1768 26.4514 45.6947 21.149 38.1546C15.8179 30.5756 15.341 20.718 17.1568 16.1872C17.1568 16.1872 18.4161 13.0625 21.5509 11.98C23.9988 11.1275 25.8042 13.1978 25.8042 13.1978Z" fill="white"/>
<path d="M41.6225 47.6419C41.6225 47.6419 44.5399 47.3998 46.3027 44.9337C46.4171 44.769 46.517 44.6003 46.6023 44.4278C46.5731 43.2243 46.0685 42.3076 46.0685 42.3076L41.3966 38.9769L37.8221 41.3796C37.8221 41.3796 32.2458 40.4325 27.8741 33.6186C22.9511 25.9458 24.0859 21.6233 24.0859 21.6233L27.3939 18.8443L25.8764 13.4829C25.4577 13.4411 24.9938 13.4809 24.5112 13.6485C21.697 14.6138 20.5694 17.4221 20.5694 17.4221C18.9409 21.4873 19.3655 30.3149 24.1496 37.1065C28.9049 43.8591 38.143 47.8819 41.6225 47.6419Z" fill="#DEDEDE"/>
<path d="M35.1747 44.7448C35.1826 44.7156 35.1904 44.6865 35.2035 44.6665C35.3215 44.4012 35.6348 44.2819 35.9002 44.3999C39.7002 46.1137 41.8089 45.9441 42.9132 45.4975C43.966 45.0685 44.2693 44.3448 44.2772 44.3156C44.3806 44.0463 44.6832 43.9086 44.9544 44.0047C45.231 44.1101 45.3687 44.4127 45.2633 44.6893C45.2424 44.7384 44.8209 45.8446 43.3585 46.4609C41.4737 47.2532 38.8138 46.8843 35.4609 45.3685C35.2339 45.253 35.1083 44.9927 35.1747 44.7448Z" fill="white"/>
<defs>
<linearGradient id="paint0_linear_985_7800" x1="31.75" y1="0" x2="31.75" y2="62" gradientUnits="userSpaceOnUse">
<stop stop-color="#E72125"/>
<stop offset="1" stop-color="#8E1D1D"/>
</linearGradient>
</defs>
</svg>
