<svg width="46" height="54" viewBox="0 0 46 54" fill="none" xmlns="http://www.w3.org/2000/svg">
<path d="M34.1199 19.4678L33.895 19.3329C33.7138 19.2134 33.5019 19.1488 33.2848 19.147C33.0678 19.1453 32.8549 19.2063 32.6718 19.3229C32.4886 19.4394 32.3431 19.6064 32.2528 19.8038C32.1625 20.0012 32.1312 20.2204 32.1628 20.4352C32.1968 20.6604 32.1802 20.8904 32.114 21.1083C32.0478 21.3263 31.9338 21.5267 31.7803 21.695C31.5392 21.9482 31.2497 22.1503 30.9289 22.2894C30.6082 22.4286 30.2627 22.5018 29.9131 22.5048C29.3253 22.4775 28.7689 22.2317 28.3528 21.8156C27.9367 21.3995 27.6909 20.843 27.6635 20.2552C27.6153 19.0339 27.7906 17.8141 28.1809 16.6558C28.6374 15.2789 28.8432 13.8311 28.7883 12.3815C28.7883 7.88226 28.2484 5.45267 22.8043 0.323515C22.632 0.153808 22.4097 0.0441366 22.1702 0.0107641C21.9306 -0.0226084 21.6868 0.0220949 21.4747 0.138245C21.2626 0.254396 21.0935 0.435808 20.9927 0.655583C20.8918 0.875358 20.8644 1.12179 20.9146 1.35834C22.2194 7.79228 18.2826 11.2567 13.2884 15.4635C11.9161 16.7233 10.3189 18.0056 8.87911 19.4678C2.08523 26.2392 0.667969 32.2007 0.667969 36.0026C0.667969 42.7515 3.16506 51.2776 15.0431 53.9996H15.313C15.5659 54.0061 15.8135 53.9272 16.016 53.7756C16.2184 53.6241 16.3639 53.4087 16.4289 53.1643C16.4939 52.9199 16.4746 52.6607 16.3742 52.4286C16.2738 52.1965 16.0981 52.005 15.8755 51.885C11.6237 47.9481 10.7913 45.9685 10.7913 43.8763C11.0139 41.6979 11.9559 39.6557 13.4683 38.0723C13.4334 38.9995 13.6762 39.9161 14.1657 40.7043C14.701 41.3764 15.3876 41.9122 16.1696 42.268C16.9516 42.6238 17.8067 42.7895 18.665 42.7515C21.3195 42.7515 23.1642 40.5019 23.1642 37.1274C22.9617 35.4144 22.0979 33.8484 20.7571 32.7631C19.6527 31.8897 18.908 30.6407 18.665 29.2537C18.6697 28.3566 18.8533 27.4695 19.2049 26.6442C19.7646 27.5991 20.5338 28.4144 21.4545 29.0288C22.0169 29.4337 22.8493 29.9736 23.8166 30.581C27.551 32.8306 34.4799 37.3299 34.4799 41.6042C34.4799 47.1833 32.4327 48.893 28.2034 51.93C28.0065 52.0674 27.8588 52.2642 27.7818 52.4916C27.7048 52.719 27.7026 52.9651 27.7755 53.1939C27.8484 53.4227 27.9925 53.6221 28.1869 53.763C28.3813 53.9039 28.6157 53.979 28.8558 53.9771H29.1033C37.2694 52.1774 45.728 44.9786 45.728 35.9801C45.728 26.9816 37.8768 21.9199 34.1199 19.4678Z" fill="#EE4323"/>
</svg>
