<svg width="39" height="54" viewBox="0 0 39 54" fill="none" xmlns="http://www.w3.org/2000/svg">
<path d="M38.5491 10.6121L35.0638 49.6566L19.3971 53.9999L3.77362 49.6627L0.291992 10.6121H38.5491Z" fill="#004CE8"/>
<path d="M32.0813 47.1703L35.0597 13.8049H19.4219V50.68L32.0813 47.1703Z" fill="#0065F4"/>
<path d="M8.27366 28.2888L8.70291 33.0782H19.4206L21.4808 30.6835L19.4206 28.2888H8.27366ZM19.4206 18.595H7.41113L7.84651 23.3844H19.4206L21.4808 20.9896L19.4206 18.595ZM19.4206 45.7104L21.4808 43.1706L19.4206 40.7275L19.3997 40.733L14.0657 39.2928L13.7247 35.473H8.91691L9.5879 42.993L19.3986 45.7166L19.4206 45.7104Z" fill="#EBEBEB"/>
<path d="M9.29688 0H15.0977V2.42579H11.7227V4.85158H15.0977V7.27737H9.29688V0ZM16.2578 0H22.0586V2.10938H18.6836V2.53126H22.0586V7.38284H16.2578V5.16799H19.6328V4.74611H16.2578V0ZM23.2188 0H29.0195V2.10938H25.6445V2.53126H29.0195V7.38284H23.2188V5.16799H26.5938V4.74611H23.2188V0Z" fill="white"/>
<path d="M25.3019 33.0782L24.746 39.2897L19.4043 40.7315V45.7142L29.2228 42.993L29.2948 42.1839L30.4203 29.5749L30.5372 28.2888L31.4018 18.595H19.4043V23.3844H26.153L25.7172 28.2888H19.4043V33.0782H25.3019Z" fill="white"/>
</svg>
