<svg width="36" height="54" viewBox="0 0 36 54" fill="none" xmlns="http://www.w3.org/2000/svg">
<path d="M23.6869 42.7029H12.3122C6.04028 42.7029 0.9375 37.6004 0.9375 31.3285V23.6872C0.9375 17.4153 6.04028 12.3125 12.3122 12.3125H16.0001V0H23.6869V42.7029ZM12.3122 19.9996C10.2788 19.9996 8.62433 21.6538 8.62433 23.6872V31.3282C8.62433 33.3616 10.2788 35.0161 12.3122 35.0161H16.0001V19.9996H12.3122Z" fill="#2FD498"/>
<path d="M24.4885 54H20.4883V46.3132H24.4883C26.5219 46.3132 28.1761 44.6587 28.1761 42.625V12.406H35.863V42.6253C35.8632 48.8972 30.7605 54 24.4885 54ZM28.1764 0H35.8632V7.68683H28.1764V0Z" fill="#2FD498"/>
</svg>
