<svg width="43" height="55" viewBox="0 0 43 55" fill="none" xmlns="http://www.w3.org/2000/svg">
<path d="M29.9024 12.3807C26.1027 8.58277 22.4773 4.96223 21.3983 0.878906C20.3193 4.96223 16.6934 8.58277 12.8943 12.3807C7.1956 18.0758 0.734375 24.5304 0.734375 34.2111C0.732688 45.6239 9.98304 54.8771 21.3958 54.8789C32.8086 54.8806 42.0618 45.6302 42.0636 34.2175V34.2111C42.0636 24.531 35.6029 18.0758 29.9024 12.3807ZM9.5175 39.0263C8.25039 38.9833 3.57423 30.9232 12.2493 22.3412L17.99 28.6119C18.0393 28.6606 18.0777 28.7192 18.1027 28.7837C18.1277 28.8483 18.1388 28.9175 18.1352 28.9866C18.1316 29.0558 18.1134 29.1234 18.0817 29.1851C18.0501 29.2467 18.0058 29.3009 17.9517 29.3442C16.5819 30.7491 10.7431 36.6042 10.0174 38.6288C9.86765 39.0467 9.6488 39.0309 9.5175 39.0263ZM21.399 49.6493C17.4738 49.6493 14.292 46.4675 14.2919 42.5423V42.5422C14.3181 40.819 14.9446 39.1588 16.0633 37.8478C17.3448 36.2808 21.398 31.8734 21.398 31.8734C21.398 31.8734 25.3892 36.3455 26.7231 37.8329C27.8852 39.1247 28.5213 40.8049 28.506 42.5423C28.5061 46.4675 25.3241 49.6493 21.399 49.6493ZM35.0019 38.1242C34.8488 38.4592 34.5013 39.0185 34.0322 39.0356C33.1963 39.0661 33.107 38.6377 32.489 37.7233C31.1325 35.7158 19.2939 23.3431 17.0796 20.9502C15.1319 18.8456 16.8053 17.3619 17.5815 16.5843C18.5554 15.6087 21.3981 12.7677 21.3981 12.7677C21.3981 12.7677 29.8744 20.81 33.4053 26.305C36.9362 31.8 35.7194 36.5551 35.0019 38.1242Z" fill="#009DDE"/>
</svg>
