<svg width="94" height="54" viewBox="0 0 94 54" fill="none" xmlns="http://www.w3.org/2000/svg">
<path d="M93.1161 52.5691C89.7322 53.4299 87.6395 52.6062 85.762 49.7863C81.5469 43.4711 76.894 37.4453 72.4044 31.3082C71.8255 30.5141 71.2244 29.7349 70.4749 28.748C65.1615 35.9166 59.8556 42.7438 54.8761 49.8456C53.0951 52.3836 51.2251 53.4893 47.9005 52.5914L67.8776 25.7796L49.2808 1.56513C52.4792 0.941777 54.6906 1.26088 56.6497 4.12535C60.9761 10.448 65.7478 16.4663 70.5046 22.8335C75.2911 16.4886 80.0034 10.4628 84.4559 4.19956C86.2444 1.66161 88.1664 0.696887 91.3797 1.63192C88.9456 4.86002 86.5635 8.03618 84.1665 11.1901C80.931 15.4423 77.7548 19.7464 74.4006 23.9095C73.2058 25.3937 73.3988 26.3584 74.4674 27.761C80.6713 35.9166 86.8009 44.1538 93.1161 52.5691ZM0.102341 25.3343C0.636647 22.6554 0.992851 19.9245 1.73494 17.2975C6.18749 1.39445 24.443 -5.21759 36.9843 4.63739C44.331 10.4183 46.1566 18.5665 45.7929 27.7536H4.38421C3.76085 44.2354 15.6269 54.1869 30.7507 49.111C36.0567 47.3299 39.1809 43.1742 40.7467 37.9796C41.5408 35.3748 42.8543 34.9667 45.3032 35.7088C44.049 42.2095 41.2068 47.6416 35.2701 51.0404C26.365 56.1312 13.6529 54.4837 6.96669 47.4116C3.01876 43.2559 1.34163 38.0835 0.599542 32.4955C0.488229 31.605 0.25818 30.7293 0.0800781 29.8463C0.09492 28.3423 0.102341 26.8383 0.102341 25.3343ZM4.45842 24.2286H41.8821C41.6372 12.3106 34.2163 3.84336 24.0719 3.76915C12.9405 3.6801 4.94078 11.947 4.45842 24.2286Z" fill="white"/>
</svg>
