<svg width="39" height="54" viewBox="0 0 39 54" fill="none" xmlns="http://www.w3.org/2000/svg">
<path d="M4.05469 0H6.48047V2.40469H8.71641V0H11.1422V7.27734H8.71641V4.85156H6.50156V7.27734H4.05469V0ZM14.3484 2.42578H12.2074V0H18.9258V2.42578H16.7742V7.27734H14.3484V2.42578ZM19.991 0H22.5328L24.0938 2.56289L25.6547 0H28.1965V7.27734H25.7707V3.67031L24.0727 6.28594L22.3746 3.67031V7.27734H19.991V0ZM29.3988 0H31.8246V4.87266H35.2629V7.27734H29.3988V0Z" fill="white"/>
<path d="M3.96973 49.676L0.489258 10.6104H38.7533L35.2729 49.6549L19.5896 54.0002" fill="#FF4C1E"/>
<path d="M19.6221 50.6777V13.8164H35.2631L32.2783 47.1445L19.6221 50.6777Z" fill="#FF651E"/>
<path d="M7.59766 18.5942H19.6211L21.4089 20.9884L19.6211 23.3825H12.85L13.293 28.2868H19.6211L21.4089 30.7705L19.6211 33.0646H8.90547L7.59766 18.5942ZM9.11641 35.4692H13.9258L14.2633 39.2978L19.6211 40.7321L21.6384 43.122L19.6211 45.7313L9.79141 42.9892L9.11641 35.4692Z" fill="#EBEBEB"/>
<path d="M31.602 18.5942H19.5996V23.3825H31.159L31.602 18.5942ZM30.7266 28.2868H19.5996V33.0751H25.5059L24.9469 39.2978L19.5996 40.7321V45.7103L29.4082 42.9892L30.7266 28.2868Z" fill="white"/>
</svg>
