<svg width="55" height="55" viewBox="0 0 55 55" fill="none" xmlns="http://www.w3.org/2000/svg">
<path d="M54.5973 9.46981C54.5973 4.73254 50.7436 0.878906 46.0064 0.878906C42.6436 0.878906 39.6491 2.84009 38.25 5.84936C37.8946 5.80974 37.5374 5.78925 37.1798 5.788C33.8392 5.788 30.6974 7.0889 28.3361 9.45263L15.9922 21.7916C16.137 22.0076 16.3015 22.2089 16.4905 22.3979L21.969 27.8789L33.0758 16.7721C33.7766 16.0829 34.7073 15.6772 35.6891 15.6327C36.6709 15.5883 37.6345 15.9084 38.3946 16.5315C39.1547 17.1545 39.6577 18.0366 39.8068 19.008C39.9559 19.9795 39.7406 20.9717 39.2024 21.7941L45.2896 27.8789L46.026 27.1425C47.1907 25.9832 48.114 24.6044 48.7426 23.086C49.3712 21.5676 49.6926 19.9397 49.6882 18.2964C49.6882 17.9282 49.6636 17.5723 49.6268 17.2262C51.11 16.5435 52.3664 15.4501 53.2473 14.0755C54.1282 12.7008 54.5967 11.1025 54.5973 9.46981Z" fill="#FCB415"/>
<path opacity="0.2" d="M28.3336 10.0663C29.4925 8.90069 30.8711 7.97662 32.3895 7.34757C33.908 6.71852 35.5362 6.397 37.1798 6.40163C37.548 6.40163 37.9039 6.42618 38.25 6.463C38.9331 4.98023 40.0266 3.72413 41.4012 2.84329C42.7757 1.96245 44.3738 1.49372 46.0064 1.49254C48.2368 1.49729 50.3779 2.36957 51.9766 3.92481C53.5754 5.48006 54.5064 7.59627 54.5727 9.82572C54.5776 9.7079 54.5973 9.59009 54.5973 9.46981C54.5973 4.73254 50.7436 0.878906 46.0064 0.878906C42.6436 0.878906 39.6491 2.84009 38.25 5.84936C37.8946 5.80974 37.5374 5.78925 37.1798 5.788C33.8392 5.788 30.6974 7.0889 28.3361 9.45263L15.9922 21.7916C16.0732 21.9119 16.1763 22.0174 16.2696 22.1279L28.3336 10.0663Z" fill="white"/>
<path d="M9.18856 0.878906C4.45129 0.878906 0.597656 4.73254 0.597656 9.46981C0.597656 12.8325 2.55884 15.8271 5.56811 17.2262C5.53129 17.5698 5.50675 17.9282 5.50675 18.2964C5.50675 21.637 6.80765 24.7788 9.17138 27.1401L21.5128 39.484C21.7288 39.3392 21.9301 39.1747 22.1191 38.9857L27.5976 33.5072L16.4908 22.4004C15.8037 21.6994 15.3995 20.7695 15.3558 19.7889C15.3121 18.8083 15.6319 17.846 16.254 17.0868C16.8761 16.3275 17.7566 15.8246 18.7266 15.6746C19.6967 15.5245 20.688 15.7379 21.5104 16.2738L27.5976 10.1865L26.8613 9.45018C25.7019 8.28548 24.3232 7.36215 22.8048 6.73356C21.2864 6.10497 19.6585 5.78359 18.0151 5.788C17.6469 5.788 17.291 5.81254 16.9449 5.84936C16.2623 4.36622 15.1689 3.10979 13.7942 2.22888C12.4196 1.34797 10.8213 0.879483 9.18856 0.878906Z" fill="#68B345"/>
<path opacity="0.2" d="M9.18856 1.49254C10.8213 1.49312 12.4196 1.96161 13.7942 2.84252C15.1689 3.72343 16.2623 4.97986 16.9449 6.463C17.3002 6.42282 17.6575 6.40234 18.0151 6.40163C21.3557 6.40163 24.4951 7.70254 26.8613 10.0638L27.2908 10.4958L27.5976 10.189L26.8613 9.45263C25.7021 8.28749 24.3235 7.36371 22.8051 6.73469C21.2867 6.10567 19.6586 5.78391 18.0151 5.788C17.6469 5.788 17.291 5.81254 16.9449 5.84936C16.2623 4.36622 15.1689 3.10979 13.7942 2.22888C12.4196 1.34797 10.8213 0.879483 9.18856 0.878906C4.45129 0.878906 0.597656 4.73254 0.597656 9.46981C0.597656 9.59254 0.617293 9.7079 0.622202 9.82572C0.688491 7.59627 1.61951 5.48006 3.21827 3.92481C4.81704 2.36957 6.95813 1.49729 9.18856 1.49254Z" fill="white"/>
<path d="M0.597656 46.288C0.597656 51.0253 4.45129 54.8789 9.18856 54.8789C12.5513 54.8789 15.5458 52.9177 16.9449 49.9084C17.2886 49.9453 17.6469 49.9698 18.0151 49.9698C21.3557 49.9698 24.4976 48.6689 26.8588 46.3052L39.2027 33.9637C39.0568 33.7459 38.8899 33.5428 38.7045 33.3575L33.2259 27.8789L22.1191 38.9857C21.4184 39.6749 20.4876 40.0806 19.5058 40.1251C18.524 40.1695 17.5604 39.8494 16.8003 39.2263C16.0402 38.6033 15.5373 37.7212 15.3882 36.7498C15.2391 35.7783 15.4543 34.7861 15.9926 33.9637L9.90529 27.8789L9.16893 28.6153C8.00423 29.7746 7.0809 31.1534 6.45231 32.6718C5.82372 34.1902 5.50234 35.8181 5.50675 37.4614C5.50675 37.8296 5.53129 38.1855 5.56811 38.5316C4.08497 39.2143 2.82854 40.3077 1.94763 41.6823C1.06672 43.057 0.598233 44.6553 0.597656 46.288Z" fill="#0A99D6"/>
<path opacity="0.1" d="M26.8613 45.691C25.7024 46.8566 24.3239 47.7807 22.8054 48.4097C21.2869 49.0388 19.6587 49.3603 18.0151 49.3557C17.6469 49.3557 17.291 49.3311 16.9449 49.2943C16.2618 50.7771 15.1683 52.0332 13.7937 52.914C12.4192 53.7949 10.8211 54.2636 9.18856 54.2648C6.95813 54.26 4.81704 53.3877 3.21827 51.8325C1.61951 50.2773 0.688491 48.161 0.622202 45.9316C0.617293 46.0494 0.597656 46.1672 0.597656 46.2875C0.597656 51.0248 4.45129 54.8784 9.18856 54.8784C12.5513 54.8784 15.5458 52.9172 16.9449 49.9079C17.2886 49.9448 17.6469 49.9693 18.0151 49.9693C21.3557 49.9693 24.4976 48.6684 26.8588 46.3047L39.2027 33.9632C39.1217 33.843 39.0186 33.7374 38.9254 33.627L26.8613 45.691Z" fill="#010101"/>
<path d="M46.0067 54.8785C50.744 54.8785 54.5976 51.0249 54.5976 46.2876C54.5976 42.9249 52.6365 39.9303 49.6272 38.5312C49.664 38.1876 49.6886 37.8292 49.6886 37.4611C49.6886 34.1204 48.3876 30.9786 46.0239 28.6173L33.6849 16.2734C33.4689 16.4183 33.2677 16.5827 33.0787 16.7717L27.5977 22.2503L38.7045 33.3571C39.3936 34.0578 39.7994 34.9885 39.8438 35.9704C39.8882 36.9522 39.5681 37.9158 38.9451 38.6759C38.322 39.436 37.44 39.9389 36.4685 40.088C35.4971 40.2371 34.5048 40.0219 33.6825 39.4836L27.5977 45.5709L28.334 46.3072C29.4934 47.4719 30.8721 48.3953 32.3905 49.0239C33.9089 49.6525 35.5368 49.9738 37.1802 49.9694C37.5484 49.9694 37.9043 49.9449 38.2504 49.9081C38.933 51.3912 40.0264 52.6476 41.4011 53.5285C42.7757 54.4095 44.374 54.8779 46.0067 54.8785Z" fill="#EE3325"/>
<path opacity="0.1" d="M46.0067 54.265C44.374 54.2644 42.7757 53.7959 41.4011 52.915C40.0264 52.0341 38.933 50.7777 38.2504 49.2945C37.8951 49.3347 37.5378 49.3552 37.1802 49.3559C33.8396 49.3559 30.7002 48.055 28.334 45.6937L27.9045 45.2617L27.5977 45.5685L28.334 46.3049C29.4932 47.47 30.8718 48.3938 32.3902 49.0228C33.9086 49.6519 35.5367 49.9736 37.1802 49.9695C37.5484 49.9695 37.9043 49.945 38.2504 49.9082C38.933 51.3913 40.0264 52.6477 41.4011 53.5286C42.7757 54.4096 44.374 54.878 46.0067 54.8786C50.744 54.8786 54.5976 51.025 54.5976 46.2877C54.5976 46.165 54.578 46.0496 54.5731 45.9318C54.5068 48.1613 53.5758 50.2775 51.977 51.8327C50.3783 53.388 48.2372 54.2602 46.0067 54.265Z" fill="#010101"/>
<path d="M49.6272 38.5316C49.664 38.188 49.6885 37.8296 49.6885 37.4614C49.6885 34.1208 48.3876 30.979 46.0239 28.6177L45.2876 27.8814L46.0239 27.1425C47.189 25.9834 48.1128 24.6047 48.7419 23.0863C49.3709 21.5679 49.6926 19.9399 49.6885 18.2964C49.6885 17.9282 49.664 17.5723 49.6272 17.2262C51.1103 16.5435 52.3668 15.4501 53.2477 14.0755C54.1286 12.7008 54.5971 11.1025 54.5976 9.46981C54.5976 4.73254 50.744 0.878906 46.0067 0.878906C42.644 0.878906 39.6495 2.84009 38.2504 5.84936C37.895 5.80974 37.5378 5.78925 37.1802 5.788C33.8396 5.788 30.6977 7.0889 28.3365 9.45263L27.6001 10.189L26.8613 9.45263C25.7021 8.28749 24.3235 7.36371 22.8051 6.73469C21.2867 6.10567 19.6586 5.78391 18.0151 5.788C17.6469 5.788 17.291 5.81254 16.9449 5.84936C16.2623 4.36622 15.1689 3.10979 13.7942 2.22888C12.4196 1.34797 10.8213 0.879483 9.18856 0.878906C4.45129 0.878906 0.597656 4.73254 0.597656 9.46981C0.597656 12.8325 2.55884 15.8271 5.56811 17.2262C5.53129 17.5698 5.50675 17.9282 5.50675 18.2964C5.50675 21.637 6.80765 24.7788 9.17138 27.1401L9.90774 27.8764L9.17138 28.6153C8.00624 29.7744 7.08246 31.1531 6.45344 32.6715C5.82442 34.1899 5.50266 35.8179 5.50675 37.4614C5.50675 37.8296 5.53129 38.1855 5.56811 38.5316C4.08497 39.2143 2.82854 40.3076 1.94763 41.6823C1.06672 43.057 0.598233 44.6553 0.597656 46.288C0.597656 51.0252 4.45129 54.8789 9.18856 54.8789C12.5513 54.8789 15.5458 52.9177 16.9449 49.9084C17.2886 49.9453 17.6469 49.9698 18.0151 49.9698C21.3557 49.9698 24.4976 48.6689 26.8588 46.3052L27.5952 45.5688L28.334 46.3052C29.4932 47.4703 30.8718 48.3941 32.3902 49.0231C33.9086 49.6521 35.5367 49.9739 37.1802 49.9698C37.5484 49.9698 37.9043 49.9453 38.2504 49.9084C38.933 51.3916 40.0264 52.648 41.4011 53.5289C42.7757 54.4098 44.374 54.8783 46.0067 54.8789C50.744 54.8789 54.5976 51.0252 54.5976 46.288C54.5976 42.9253 52.6365 39.9307 49.6272 38.5316ZM19.3013 40.1516C18.5818 40.15 17.8762 39.9536 17.2594 39.5832C16.6425 39.2129 16.1375 38.6823 15.798 38.048C15.4584 37.4137 15.297 36.6993 15.3308 35.9806C15.3646 35.2619 15.5925 34.5658 15.9901 33.9662V33.9613L21.5079 39.484C20.8599 39.9135 20.0843 40.1516 19.3013 40.1516ZM15.995 21.7916C15.492 21.0259 15.2682 20.1102 15.3615 19.1988C15.4547 18.2874 15.8593 17.436 16.507 16.788C17.1547 16.14 18.0059 15.7351 18.9173 15.6414C19.8286 15.5478 20.7444 15.7711 21.5104 16.2738L15.995 21.7916ZM27.5976 33.5072L21.9694 27.8789L27.5976 22.2506L33.2259 27.8789L27.5976 33.5072ZM35.8916 40.1516C35.0938 40.1516 34.3305 39.9184 33.6825 39.484L33.6776 39.4864L39.2003 33.9637C39.5984 34.563 39.8267 35.2589 39.8611 35.9776C39.8955 36.6962 39.7346 37.4107 39.3955 38.0453C39.0565 38.6798 38.5519 39.2107 37.9354 39.5816C37.3189 39.9525 36.6135 40.1494 35.894 40.1516H35.8916ZM39.2027 21.7916V21.7965L33.6849 16.2738C34.4508 15.7697 35.3672 15.5452 36.2793 15.6383C37.1915 15.7313 38.0437 16.1362 38.692 16.7845C39.3404 17.4329 39.7452 18.285 39.8382 19.1972C39.9313 20.1094 39.7068 21.0257 39.2027 21.7916Z" fill="url(#paint0_linear_936_3990)"/>
<defs>
<linearGradient id="paint0_linear_936_3990" x1="-2.36007" y1="13.9101" x2="57.5554" y2="41.8477" gradientUnits="userSpaceOnUse">
<stop stop-color="white" stop-opacity="0.2"/>
<stop offset="1" stop-color="white" stop-opacity="0"/>
</linearGradient>
</defs>
</svg>
