<svg width="55" height="54" viewBox="0 0 55 54" fill="none" xmlns="http://www.w3.org/2000/svg">
<path d="M0.220703 0H54.2207V54H0.220703V0Z" fill="#FFDF00"/>
<path d="M36.4955 42.1876C37.5832 43.9636 38.9984 45.269 41.5013 45.269C43.6038 45.269 44.9469 44.2181 44.9469 42.7661C44.9469 41.0261 43.567 40.4099 41.2527 39.3976L39.9841 38.8532C36.3223 37.2933 33.8898 35.3389 33.8898 31.2075C33.8898 27.4018 36.7895 24.5046 41.3212 24.5046C44.5475 24.5046 46.867 25.6275 48.5383 28.5675L44.587 31.1047C43.7169 29.5447 42.7784 28.9301 41.3212 28.9301C39.835 28.9301 38.8929 29.873 38.8929 31.1047C38.8929 32.627 39.8358 33.2432 42.0129 34.1861L43.2815 34.7295C47.5929 36.5784 50.0271 38.4632 50.0271 42.7009C50.0271 47.2695 46.4382 49.7724 41.6185 49.7724C36.906 49.7724 33.8614 47.5267 32.3717 44.5833L36.4955 42.1876ZM18.57 42.6273C19.3672 44.0417 20.0924 45.2374 21.8358 45.2374C23.5029 45.2374 24.5546 44.585 24.5546 42.0488V24.7945H29.629V42.1173C29.629 47.3715 26.5484 49.763 22.0518 49.763C17.9889 49.763 15.6361 47.6604 14.4395 45.128L18.57 42.6273Z" fill="black"/>
</svg>
