<svg width="48" height="54" viewBox="0 0 48 54" fill="none" xmlns="http://www.w3.org/2000/svg">
<path d="M35.3512 23.7465C35.3512 23.7465 34.904 19.9035 30.7932 19.9035C26.682 19.9035 23.8672 20.4395 23.8672 22.7187C23.8672 24.9979 31.866 24.9979 34.9048 25.8914C37.9436 26.7849 40.6245 29.1087 39.2838 33.22C37.9432 37.3312 33.832 37.7779 27.4866 37.7779C21.1413 37.7779 19.7109 32.5046 19.7109 30.4494H23.2857C23.2857 30.4494 22.8386 33.6667 27.0391 34.2027C31.2396 34.7387 35.256 35.0405 35.7975 31.79C36.5125 27.4999 22.2129 29.6451 20.9615 25.4447C19.9045 21.8955 20.5144 17.2226 27.6644 16.5073C34.8144 15.7919 38.7466 18.9488 38.7466 23.6573L35.3512 23.7465Z" fill="#66A060"/>
<path d="M0.816804 40.5003L8.72007 45.063C12.6911 47.3556 17.6547 44.4898 17.6547 39.9046V17.1938H14.4334V39.0088C14.4334 41.5127 11.7229 43.0781 9.55392 41.8255L4.03767 38.641V15.3594L24.1999 3.71976L44.3622 15.3594V38.641L24.1999 50.2806L18.3918 46.9274L14.5989 48.4569L24.1995 54L47.5831 40.4991V13.5001L24.1999 0L0.816406 13.5009V40.5003H0.816804Z" fill="#66A060"/>
</svg>
