<svg width="54" height="54" viewBox="0 0 54 54" fill="none" xmlns="http://www.w3.org/2000/svg">
<path fill-rule="evenodd" clip-rule="evenodd" d="M52.9958 12.2162C53.0153 12.2882 53.0252 12.3624 53.0254 12.437V24.028C53.0254 24.1767 52.9861 24.3229 52.9116 24.4516C52.837 24.5803 52.7298 24.6871 52.6007 24.7611L42.8722 30.3622V41.464C42.8722 41.7662 42.7116 42.0451 42.4497 42.1972L22.1422 53.8874C22.0958 53.9139 22.0451 53.9308 21.9944 53.9487C21.9753 53.9551 21.9574 53.9667 21.9373 53.972C21.7953 54.0093 21.6461 54.0093 21.5042 53.972C21.4809 53.9656 21.4598 53.9529 21.4376 53.9445C21.3911 53.9276 21.3425 53.9128 21.2982 53.8874L0.99499 42.1972C0.86601 42.1231 0.758841 42.0163 0.684283 41.8876C0.609726 41.7589 0.570415 41.6128 0.570313 41.464L0.570312 6.69118C0.570312 6.61512 0.580877 6.54117 0.599892 6.46933C0.606231 6.44503 0.62102 6.42285 0.629472 6.39855C0.645318 6.35418 0.660108 6.30876 0.683349 6.26756C0.699195 6.24009 0.722436 6.21791 0.741451 6.19255C0.765749 6.15875 0.787933 6.12389 0.816457 6.09431C0.840754 6.07001 0.872446 6.05205 0.899913 6.03092C0.930549 6.00557 0.958016 5.9781 0.992877 5.95803L11.1461 0.1129C11.2746 0.0389307 11.4203 0 11.5686 0C11.7169 0 11.8626 0.0389307 11.9912 0.1129L22.1433 5.95803H22.1454C22.1792 5.97916 22.2077 6.00557 22.2384 6.02986C22.2658 6.05099 22.2965 6.07001 22.3208 6.09325C22.3504 6.12389 22.3715 6.15875 22.3968 6.19255C22.4148 6.21791 22.4391 6.24009 22.4539 6.26756C22.4782 6.30981 22.4919 6.35418 22.5088 6.39855C22.5173 6.42285 22.5321 6.44503 22.5384 6.47039C22.5579 6.54238 22.5678 6.61661 22.568 6.69118V28.41L31.0277 23.5388V12.4359C31.0277 12.362 31.0383 12.287 31.0573 12.2162C31.0647 12.1909 31.0784 12.1687 31.0869 12.1444C31.1038 12.1 31.1186 12.0546 31.1418 12.0134C31.1577 11.9859 31.1809 11.9637 31.1989 11.9384C31.2242 11.9046 31.2453 11.8697 31.2749 11.8401C31.2992 11.8158 31.3299 11.7979 31.3573 11.7767C31.389 11.7514 31.4165 11.7239 31.4503 11.7039L41.6045 5.85873C41.733 5.78465 41.8788 5.74566 42.0271 5.74566C42.1754 5.74566 42.3211 5.78465 42.4497 5.85873L52.6018 11.7039C52.6377 11.725 52.6652 11.7514 52.6968 11.7757C52.7233 11.7968 52.7539 11.8158 52.7782 11.8391C52.8078 11.8697 52.8289 11.9046 52.8543 11.9384C52.8733 11.9637 52.8965 11.9859 52.9113 12.0134C52.9356 12.0546 52.9493 12.1 52.9662 12.1444C52.9757 12.1687 52.9895 12.1909 52.9958 12.2162ZM51.333 23.5388V13.9001L47.7803 15.9453L42.8722 18.7713V28.41L51.3341 23.5388H51.333ZM41.1809 40.9749V31.3299L36.3531 34.0871L22.5669 41.9553V51.6912L41.1809 40.9749ZM2.26268 8.15431V40.9749L20.8746 51.6901V41.9563L11.1513 36.4535L11.1482 36.4514L11.1439 36.4492C11.1112 36.4302 11.0837 36.4028 11.0531 36.3795C11.0267 36.3584 10.996 36.3415 10.9728 36.3183L10.9707 36.3151C10.9432 36.2887 10.9242 36.2559 10.901 36.2263C10.8798 36.1978 10.8545 36.1735 10.8376 36.144L10.8365 36.1408C10.8175 36.1091 10.8059 36.0711 10.7922 36.0351C10.7784 36.0034 10.7605 35.9739 10.752 35.9401C10.7414 35.8999 10.7393 35.8566 10.7351 35.8154C10.7309 35.7837 10.7224 35.752 10.7224 35.7203V13.0254L5.8154 10.1985L2.26268 8.15431ZM11.5697 1.82218L3.11098 6.69118L11.5676 11.5602L20.0252 6.69012L11.5676 1.82218H11.5697ZM15.9686 32.2088L20.8756 29.384V8.15431L17.3229 10.1995L12.4148 13.0254V34.2551L15.9686 32.2088ZM42.0271 7.568L33.5695 12.437L42.0271 17.306L50.4837 12.4359L42.0271 7.568ZM41.1809 18.7713L36.2728 15.9453L32.7201 13.9001V23.5388L37.6271 26.3637L41.1809 28.41V18.7713ZM21.7197 40.4921L34.1251 33.41L40.3263 29.871L31.875 25.0051L22.1444 30.6073L13.2758 35.7129L21.7197 40.4921Z" fill="#FF2D20"/>
</svg>
