<svg width="63" height="62" viewBox="0 0 63 62" fill="none" xmlns="http://www.w3.org/2000/svg">
<circle cx="31.75" cy="31" r="31" fill="url(#paint0_linear_985_7808)"/>
<path d="M44.4626 43.1659H19.044C17.2236 43.1659 15.75 41.6922 15.75 39.8719V22.1348C15.75 20.3145 17.2236 18.8408 19.044 18.8408H44.456C46.2763 18.8408 47.75 20.3145 47.75 22.1348V39.8719C47.7566 41.6922 46.283 43.1659 44.4626 43.1659Z" fill="#F5F4EE"/>
<path d="M16.4902 41.9523C17.097 42.6925 18.0172 43.1659 19.0441 43.1659H44.456C45.4896 43.1659 46.4098 42.6925 47.0099 41.9523L31.7534 29.5098L16.4902 41.9523Z" fill="#C7C6C3"/>
<path d="M16.25 20.3876L30.0795 33.5037C31.0197 34.3972 32.4934 34.3972 33.4336 33.5037L47.2564 20.3876C46.6763 19.4541 45.6428 18.834 44.4625 18.834H19.0439C17.8637 18.8407 16.8301 19.4608 16.25 20.3876Z" fill="white"/>
<defs>
<linearGradient id="paint0_linear_985_7808" x1="31.75" y1="0" x2="31.75" y2="62" gradientUnits="userSpaceOnUse">
<stop stop-color="#E72125"/>
<stop offset="1" stop-color="#8E1D1D"/>
</linearGradient>
</defs>
</svg>
