<svg width="160" height="44" viewBox="0 0 160 44" fill="none" xmlns="http://www.w3.org/2000/svg">
<path d="M18.636 17.6856C16.409 7.86129 11.7675 5.24595 10.5834 3.39717C10.0952 2.58274 9.66269 1.73617 9.28887 0.863281C9.22632 1.73603 9.11141 2.28587 8.36957 2.9477C6.88008 4.27574 0.554112 9.43079 0.0217355 20.5933C-0.474277 31.0008 7.67283 37.4185 8.74922 38.0818C9.57688 38.489 10.5849 38.0905 11.0765 37.7166C15.0039 35.0213 20.3699 27.8357 18.6404 17.6856" fill="#10AA50"/>
<path d="M9.62665 32.5391C9.42156 35.1151 9.27465 36.6119 8.75391 38.0839C8.75391 38.0839 9.09573 40.5364 9.33574 43.1343H10.1852C10.3878 41.3049 10.6972 39.4889 11.1118 37.6956C10.0121 37.1545 9.66884 34.7995 9.62665 32.5391Z" fill="#B8C4C2"/>
<path d="M11.1094 37.6973C9.99814 37.1839 9.67668 34.7794 9.62722 32.5394C9.90205 28.8442 9.98216 25.1372 9.86723 21.4336C9.80905 19.4903 9.89487 3.43459 9.38867 1.08398C9.73494 1.88011 10.1339 2.65227 10.5829 3.39532C11.7669 5.24555 16.4099 7.8609 18.6354 17.6852C20.3693 27.8178 15.0324 34.9845 11.1094 37.6973Z" fill="#12924F"/>
<path d="M157.587 34.1466C157.111 34.1466 156.646 34.0059 156.25 33.7421C155.854 33.4784 155.544 33.1035 155.361 32.6645C155.177 32.2255 155.127 31.742 155.218 31.2749C155.308 30.8077 155.535 30.3777 155.869 30.0389C156.203 29.7001 156.63 29.4677 157.096 29.3708C157.562 29.274 158.046 29.317 158.487 29.4945C158.929 29.6721 159.308 29.9762 159.577 30.3686C159.846 30.761 159.993 31.2242 160 31.7C160.009 32.0208 159.952 32.3401 159.835 32.6386C159.717 32.9372 159.54 33.2089 159.314 33.4373C159.089 33.6658 158.82 33.8464 158.523 33.9683C158.226 34.0902 157.908 34.1509 157.587 34.1466ZM157.587 29.5385C157.152 29.5356 156.726 29.6618 156.363 29.9012C156 30.1405 155.716 30.4822 155.548 30.8829C155.379 31.2837 155.333 31.7254 155.416 32.1523C155.498 32.5792 155.706 32.9719 156.012 33.2808C156.318 33.5896 156.709 33.8007 157.135 33.8873C157.561 33.9739 158.003 33.9321 158.405 33.7672C158.808 33.6023 159.152 33.3217 159.395 32.9609C159.637 32.6002 159.767 32.1755 159.769 31.7407C159.774 31.4517 159.722 31.1645 159.614 30.8961C159.507 30.6277 159.347 30.3835 159.143 30.1782C158.94 29.9728 158.697 29.8104 158.43 29.7005C158.163 29.5906 157.876 29.5355 157.587 29.5385ZM158.169 33.2593L157.546 31.9167H157.044V33.2593H156.679V30.2047H157.579C158.25 30.2047 158.529 30.4956 158.529 31.0585C158.529 31.5066 158.318 31.7858 157.926 31.8717L158.569 33.255L158.169 33.2593ZM157.059 31.6011H157.587C158.014 31.6011 158.177 31.4556 158.177 31.0658C158.177 30.676 158.022 30.5436 157.54 30.5436H157.059V31.6011Z" fill="white"/>
<path d="M121.671 31.9454C122.324 32.4676 123.629 32.6829 124.78 32.6829C126.271 32.6829 127.733 32.4065 129.161 31.1163C130.616 29.7941 131.616 27.7708 131.616 24.5401C131.616 21.4361 130.435 18.9167 128.012 17.4418C126.645 16.5821 124.873 16.2432 122.852 16.2432C122.271 16.2432 121.671 16.2737 121.331 16.4279C121.191 16.5381 121.093 16.6916 121.05 16.8643C120.989 17.417 120.989 21.6266 120.989 24.1154C120.989 26.6667 120.989 30.2247 121.05 30.661C121.082 31.0305 121.268 31.6792 121.671 31.9513M115.469 14.8613C115.997 14.8613 118.004 14.953 118.938 14.953C120.684 14.953 121.89 14.8613 125.152 14.8613C127.887 14.8613 130.188 15.5988 131.833 17.0112C133.823 18.7334 134.888 21.1291 134.888 24.0485C134.888 28.197 132.997 30.5941 131.096 31.9454C129.205 33.3593 126.745 34.1579 123.241 34.1579C121.376 34.1579 118.175 34.0968 115.502 34.0662H115.447C115.322 33.8204 115.676 32.8618 115.894 32.8371C116.621 32.7556 116.813 32.7265 117.148 32.5884C117.712 32.3571 117.844 32.0691 117.907 31.0552C118 29.1497 117.969 26.8762 117.969 24.2943C117.969 22.4514 118 18.8556 117.939 17.7181C117.844 16.7668 117.443 16.521 116.63 16.3363C116.053 16.2138 115.471 16.1215 114.884 16.0599C114.823 15.8752 115.3 15.0417 115.456 14.8613" fill="white"/>
<path d="M142.589 16.4215C142.466 16.4521 142.31 16.7604 142.31 16.9132C142.278 18.0201 142.248 20.9075 142.248 22.9046C142.256 22.9428 142.274 22.9778 142.302 23.0052C142.33 23.0326 142.365 23.0513 142.403 23.0588C142.806 23.0893 143.801 23.1213 144.64 23.1213C145.822 23.1213 146.505 22.9671 146.878 22.7824C147.873 22.2908 148.332 21.2144 148.332 20.0478C148.332 17.3743 146.467 16.3604 143.702 16.3604C143.328 16.3557 142.955 16.3761 142.584 16.4215M149.638 28.7128C149.638 26.0087 147.649 24.4726 144.012 24.4726C143.858 24.4726 142.703 24.4421 142.428 24.5032C142.335 24.5337 142.242 24.5948 142.242 24.6574C142.242 26.5934 142.21 29.6961 142.304 30.9252C142.367 31.4474 142.741 32.1849 143.205 32.4001C143.702 32.6765 144.821 32.7376 145.598 32.7376C147.742 32.7376 149.638 31.5405 149.638 28.7128ZM136.975 14.916C137.256 14.916 138.082 15.0077 140.195 15.0077C142.184 15.0077 143.8 14.9466 145.723 14.9466C148.115 14.9466 151.409 15.8077 151.409 19.3714C151.409 21.1169 150.166 22.5366 148.55 23.213C148.457 23.2435 148.457 23.3046 148.55 23.3352C150.85 23.917 152.869 25.3323 152.869 28.0364C152.869 30.6794 151.222 32.339 148.83 33.3834C147.375 34.0293 145.567 34.2431 143.739 34.2431C142.341 34.2431 138.594 34.0976 136.511 34.1209C136.293 34.0293 136.71 33.0445 136.896 32.8918C137.373 32.8771 137.847 32.8028 138.306 32.6707C139.05 32.4874 139.139 32.2474 139.232 31.1405C139.295 30.1877 139.295 26.7767 139.295 24.349C139.295 21.0296 139.327 18.7881 139.295 17.6812C139.264 16.8215 138.953 16.5437 138.362 16.391C137.897 16.2979 137.12 16.2062 136.499 16.1146C136.344 15.9604 136.822 15.0382 136.976 14.916" fill="white"/>
<path d="M25.5177 34.1465C25.4377 33.9498 25.4053 33.737 25.4232 33.5254C25.4162 33.3811 25.4489 33.2378 25.5177 33.1108C25.9197 33.0528 26.3179 32.9717 26.7105 32.8679C27.2603 32.7312 27.4669 32.4315 27.4989 31.7304C27.5891 30.0736 27.5949 26.9652 27.5629 24.7804V24.7164C27.5629 24.4808 27.5629 24.1607 27.272 23.9353C26.7606 23.6145 26.2055 23.3695 25.6239 23.208C25.3636 23.1309 25.2196 22.9942 25.2268 22.8342C25.2341 22.6742 25.3985 22.4851 25.7374 22.4181C26.6378 22.3265 28.9971 21.7636 29.9237 21.3359C30.0191 21.4603 30.0633 21.6164 30.0473 21.7723C30.0473 21.8683 30.0328 21.9701 30.0226 22.0749C29.9964 22.3832 29.9673 22.7338 29.9673 23.0829C29.973 23.1253 29.9904 23.1653 30.0176 23.1983C30.0448 23.2314 30.0807 23.2562 30.1212 23.2699C30.1617 23.2837 30.2053 23.2858 30.2469 23.2762C30.2886 23.2665 30.3268 23.2454 30.3571 23.2153C32.1215 21.832 33.7027 21.3388 34.5129 21.3388C35.8467 21.3388 36.8853 21.976 37.6897 23.288C37.7081 23.3197 37.7344 23.3461 37.766 23.3647C37.7976 23.3833 37.8334 23.3934 37.87 23.3942C37.9034 23.3939 37.9361 23.3855 37.9655 23.3698C37.9949 23.3541 38.02 23.3315 38.0388 23.304C39.6606 22.0734 41.2679 21.3388 42.3443 21.3388C44.8869 21.3388 46.407 23.2429 46.407 26.4299C46.407 27.3463 46.3982 28.5085 46.3895 29.5922C46.3822 30.5435 46.375 31.4351 46.375 32.0519C46.375 32.1973 46.5757 32.6162 46.8768 32.6992C47.2492 32.881 47.7859 32.9741 48.4652 33.0904H48.4914C48.5423 33.2737 48.4347 33.985 48.3314 34.1305C48.1627 34.1305 47.9299 34.1159 47.639 34.1014C47.111 34.0752 46.3866 34.0388 45.5444 34.0388C43.8542 34.0388 42.9713 34.0708 42.1276 34.1261C42.0636 33.9152 42.0418 33.2344 42.1189 33.0919C42.4682 33.0373 42.8141 32.962 43.1545 32.8664C43.6927 32.689 43.8484 32.4446 43.8818 31.7304C43.8949 31.2228 43.9924 26.7499 43.8193 25.6881C43.6593 24.5869 42.8302 23.2982 41.0163 23.2982C40.3428 23.2982 39.2563 23.5789 38.2206 24.3644C38.1564 24.4372 38.1202 24.5306 38.1188 24.6277V24.6495C38.241 25.2226 38.241 25.8917 38.241 26.9026C38.241 27.4845 38.241 28.091 38.2337 28.6976C38.2264 29.9311 38.2206 31.0948 38.241 31.9748C38.241 32.5741 38.6031 32.7181 38.8955 32.833C39.0541 32.8679 39.1792 32.8984 39.3057 32.9275C39.5486 32.9872 39.8017 33.0483 40.1785 33.1079C40.2342 33.3634 40.2292 33.6285 40.1639 33.8817C40.1485 33.9768 40.1111 34.0669 40.0548 34.145C39.1152 34.113 38.1508 34.0854 36.7587 34.0854C36.3369 34.0854 35.6489 34.1028 35.0409 34.1188C34.5478 34.1319 34.0823 34.145 33.8176 34.1465C33.746 33.9775 33.7141 33.7944 33.7245 33.6112C33.7096 33.4386 33.7434 33.2652 33.8219 33.1108L34.1958 33.0424C34.5216 32.9843 34.8038 32.9348 35.0685 32.8679C35.5282 32.7224 35.7013 32.4722 35.7347 31.886C35.8249 30.5187 35.8947 26.5783 35.7013 25.5921C35.3725 24.0095 34.4721 23.2065 33.0234 23.2065C32.1754 23.2065 31.1033 23.6153 30.2277 24.2713C30.1434 24.3533 30.0771 24.4519 30.0328 24.5607C29.9885 24.6696 29.9672 24.7865 29.9702 24.904C29.9702 25.3739 29.9702 25.9324 29.9702 26.5317C29.9702 28.51 29.9571 30.9726 30.0051 32.0373C30.0342 32.3661 30.1506 32.7559 30.7659 32.8984C30.9011 32.9377 31.1339 32.9755 31.4044 33.0206C31.5601 33.0468 31.7303 33.0744 31.9063 33.1064C31.9622 33.4548 31.9338 33.8114 31.8233 34.1465C31.5528 34.1465 31.2197 34.129 30.8386 34.113C30.2568 34.0868 29.5295 34.0548 28.7076 34.0548C27.736 34.0548 27.0596 34.0868 26.517 34.113C26.1519 34.1305 25.8363 34.145 25.5207 34.1465" fill="white"/>
<path d="M56.7122 22.6539C56.1872 22.643 55.6708 22.7883 55.2286 23.0713C54.1493 23.7274 53.5994 25.0379 53.5994 26.9638C53.5994 30.5683 55.4046 33.0862 57.9894 33.0862C58.6824 33.1081 59.3584 32.8688 59.8832 32.4156C60.6774 31.7683 61.0992 30.4446 61.0992 28.5915C61.0992 25.0408 59.3348 22.6539 56.7093 22.6539M57.2068 34.4229C52.5376 34.4229 50.875 30.9974 50.875 27.7929C50.875 25.5543 51.7899 23.8045 53.5951 22.5899C54.8594 21.8072 56.3107 21.3782 57.7973 21.3477C61.3596 21.3477 63.8484 23.9092 63.8484 27.5791C63.8484 30.0723 62.8549 32.0418 60.9742 33.2723C60.0709 33.8251 58.5014 34.4229 57.2068 34.4229Z" fill="white"/>
<path d="M104.248 22.6539C103.722 22.642 103.205 22.7873 102.762 23.0713C101.683 23.7274 101.133 25.0379 101.133 26.9638C101.133 30.5683 102.938 33.0862 105.523 33.0862C106.218 33.1096 106.896 32.8702 107.422 32.4156C108.216 31.7683 108.637 30.4446 108.637 28.5915C108.637 25.0408 106.874 22.6539 104.248 22.6539ZM104.746 34.4229C100.077 34.4229 98.4141 30.9974 98.4141 27.7944C98.4141 25.5529 99.329 23.8045 101.136 22.5899C102.399 21.8067 103.85 21.3776 105.336 21.3477C108.899 21.3477 111.387 23.9106 111.387 27.5776C111.387 30.0737 110.394 32.0418 108.513 33.2709C107.61 33.8251 106.04 34.4229 104.746 34.4229Z" fill="white"/>
<path d="M88.5252 22.5316C87.0866 22.5316 86.1557 23.6676 86.1557 25.4262C86.1557 27.1848 86.9571 29.2751 89.2103 29.2751C89.5972 29.2751 90.2983 29.1034 90.646 28.7209C91.1696 28.2394 91.5187 27.2445 91.5187 26.1943C91.5187 23.9004 90.4016 22.5316 88.5325 22.5316M88.3463 34.6687C87.9399 34.6642 87.5391 34.7644 87.1826 34.9596C86.0437 35.6869 85.5157 36.4142 85.5157 37.2593C85.5157 38.0506 85.8226 38.6804 86.483 39.239C87.283 39.9168 88.3623 40.247 89.7805 40.247C92.5718 40.247 93.8228 38.7459 93.8228 37.2593C93.8228 36.2236 93.3035 35.5298 92.2344 35.137C91.4111 34.8359 90.035 34.6701 88.3506 34.6701M88.5368 41.7976C86.8611 41.7976 85.6538 41.4441 84.6225 40.6499C83.6189 39.8761 83.168 38.727 83.168 37.9328C83.1788 37.4209 83.3741 36.9303 83.7178 36.5509C84.0087 36.2193 84.6851 35.5981 86.2488 34.5232C86.273 34.5129 86.2937 34.4957 86.3082 34.4737C86.3226 34.4517 86.3303 34.4259 86.3302 34.3996C86.3307 34.3702 86.3212 34.3415 86.3032 34.3182C86.2852 34.2949 86.2599 34.2785 86.2313 34.2716C84.944 33.7785 84.5556 32.9624 84.4378 32.5261C84.4378 32.5101 84.4378 32.4853 84.4247 32.4577C84.3884 32.2861 84.3534 32.1231 84.5876 31.9559C84.768 31.8279 85.056 31.6562 85.3644 31.4744C85.7997 31.2334 86.2173 30.9617 86.6139 30.6613C86.6352 30.6384 86.651 30.6109 86.66 30.5809C86.6691 30.551 86.6712 30.5193 86.6661 30.4884C86.6611 30.4576 86.649 30.4282 86.6309 30.4027C86.6127 30.3772 86.589 30.3562 86.5615 30.3413C84.656 29.7013 83.696 28.2859 83.696 26.123C83.6901 25.4485 83.8471 24.7826 84.1535 24.1817C84.4599 23.5808 84.9067 23.0626 85.456 22.6712C86.2226 22.0647 88.147 21.3359 89.3936 21.3359H89.4663C90.7478 21.3665 91.4707 21.6356 92.4715 22.005C93.0407 22.2109 93.6439 22.3066 94.249 22.2872C95.3094 22.2872 95.7734 21.9512 96.1719 21.5599C96.2365 21.7362 96.271 21.9221 96.2737 22.1098C96.2981 22.557 96.1766 23.0001 95.9275 23.3724C95.7108 23.6735 95.2003 23.8916 94.7333 23.8916C94.6853 23.8916 94.6388 23.8916 94.5879 23.8844C94.3422 23.8671 94.0987 23.8267 93.8606 23.7636L93.7413 23.8058C93.7035 23.8611 93.7282 23.9222 93.7588 24.0007C93.7662 24.0161 93.7721 24.0322 93.7762 24.0487C93.8614 24.437 93.9192 24.8307 93.9493 25.227C93.9493 27.4888 93.0577 28.4736 92.0933 29.2038C91.1609 29.9034 90.0536 30.3322 88.8932 30.4431C88.8685 30.4431 88.7477 30.4533 88.5208 30.4736C88.3754 30.4867 88.1863 30.5042 88.1586 30.5042H88.131C87.9215 30.5624 87.3746 30.8227 87.3746 31.3071C87.3746 31.7086 87.6219 32.2075 88.8045 32.2977L89.5696 32.3515C91.1289 32.4606 93.0766 32.5959 93.993 32.9057C94.6008 33.1195 95.1258 33.5195 95.4933 34.0488C95.8607 34.5782 96.0519 35.2099 96.0396 35.8542C96.0396 37.8833 94.5966 39.7917 92.1805 40.9583C91.0412 41.5025 89.7937 41.7824 88.531 41.7772" fill="white"/>
<path d="M81.3888 33.063C80.7052 32.9713 80.2062 32.8782 79.6171 32.6019C79.5015 32.4821 79.4254 32.3298 79.399 32.1655C79.3364 31.2127 79.3364 28.4476 79.3364 26.6381C79.3364 25.1617 79.0891 23.8744 78.4637 22.9507C77.7175 21.9048 76.6614 21.291 75.2941 21.291C74.0825 21.291 72.4664 22.1201 71.1311 23.2576C71.0991 23.2882 70.894 23.4831 70.8984 23.1805C70.9027 22.878 70.9493 22.2641 70.9784 21.8714C70.9913 21.7671 70.9796 21.6611 70.9443 21.5621C70.9089 21.4631 70.8508 21.3737 70.7747 21.3012C69.902 21.7376 67.4539 22.3194 66.5477 22.4081C65.8874 22.5361 65.7201 23.1718 66.4255 23.3914H66.4357C67.0004 23.5472 67.5394 23.7843 68.0358 24.0955C68.315 24.3107 68.2845 24.6177 68.2845 24.8635C68.315 26.9217 68.315 30.0869 68.222 31.8077C68.1914 32.484 68.0038 32.7299 67.5063 32.8535L67.5528 32.8375C67.174 32.9324 66.7898 33.0043 66.4023 33.0528C66.2466 33.2055 66.2466 34.0972 66.4023 34.2819C66.7136 34.2819 68.2932 34.1903 69.6024 34.1903C71.4031 34.1903 72.3355 34.2819 72.8024 34.2819C72.9901 34.0666 73.0512 33.2375 72.9275 33.0528C72.4973 33.0333 72.07 32.9715 71.6519 32.8681C71.1558 32.7459 71.0308 32.4986 71.0002 31.9473C70.9391 30.5014 70.9391 27.4294 70.9391 25.3391C70.9391 24.7573 71.0933 24.4795 71.2795 24.3209C71.9006 23.7682 72.9275 23.4002 73.8279 23.4002C74.7007 23.4002 75.2825 23.6765 75.7189 24.0445C76.2271 24.488 76.5458 25.1097 76.6091 25.7813C76.7327 26.945 76.7007 29.2854 76.7007 31.3087C76.7007 32.4157 76.6091 32.6935 76.2047 32.8157C76.0185 32.9073 75.521 33.0004 74.9305 33.0615C74.7443 33.2463 74.8054 34.1059 74.9305 34.2906C75.7378 34.2906 76.676 34.199 78.0375 34.199C79.7466 34.199 80.8346 34.2906 81.2695 34.2906C81.4557 34.0754 81.5183 33.2724 81.3946 33.0615" fill="white"/>
</svg>
