<svg width="137" height="54" viewBox="0 0 137 54" fill="none" xmlns="http://www.w3.org/2000/svg">
<path d="M61.183 1.14409C60.0991 1.14409 58.9963 1.25027 57.8902 1.46043C55.0011 2.00573 52.0634 3.25007 49.1035 5.13373C49.911 5.93232 50.6819 6.84484 51.4053 7.84142C54.4171 5.34278 57.408 3.49672 60.3867 2.38622C61.4744 1.9796 62.5954 1.668 63.737 1.4549C62.9018 1.24588 62.0439 1.14148 61.183 1.14409Z" fill="#14559A"/>
<path d="M63.7378 1.45455C62.9021 1.24455 62.0434 1.13976 61.1816 1.14264L66.8381 1.16365C65.8106 1.16365 64.7731 1.25877 63.7378 1.45455Z" fill="#3092C4"/>
<path d="M42.1462 10.6685C40.7359 13.8573 39.2947 18.0505 37.5537 23.5223C41.0169 18.6411 44.47 14.4369 47.9033 11.0291C47.47 9.67157 46.9597 8.33989 46.3747 7.04053C44.9002 8.1719 43.4885 9.38302 42.1462 10.6685Z" fill="url(#paint0_linear_51_1395)"/>
<path d="M47.6258 6.11914C47.2122 6.41557 46.7952 6.71864 46.376 7.0394C46.9235 8.23397 47.4301 9.57455 47.9024 11.029C48.5129 10.4294 49.1339 9.84055 49.765 9.26263C49.1337 8.16143 48.4186 7.11049 47.6258 6.11914Z" fill="#2B74B1"/>
<path d="M49.1038 5.13232C48.6116 5.44424 48.1216 5.77385 47.625 6.11784C48.3937 7.06354 49.0994 8.11985 49.7664 9.26354C50.3139 8.76802 50.8603 8.29129 51.4056 7.84001C50.6822 6.84454 49.9124 5.93092 49.1038 5.13232Z" fill="#125A9E"/>
<path d="M35.1586 2.18382L35.1797 2.16612L35.2051 2.14953H35.2195L35.3975 2.08095L35.4329 2.06325L35.4794 2.04445L35.6708 1.97587H35.6807L36.1043 1.82766L36.1674 1.81107L36.3488 1.75687L36.4317 1.73032L36.6142 1.67613L36.6839 1.65732L37.2901 1.50026L37.373 1.48146L37.55 1.44717L37.6363 1.42062L37.8143 1.38744H37.8564L38.2247 1.31886H38.2977L38.468 1.289L38.5643 1.2724L38.7269 1.24807L38.8165 1.23038L39.2124 1.19498C38.8224 1.15695 38.4308 1.13702 38.0389 1.13525C25.6253 1.13525 8.52307 24.1661 0.820312 53.9927H2.30578C4.60873 49.8759 6.84406 45.7217 9.01085 41.5316C14.4074 20.4054 25.3964 5.99759 35.1586 2.1805" fill="url(#paint1_linear_51_1395)"/>
<path d="M42.1465 10.6682C43.4894 9.38295 44.901 8.17148 46.375 7.03912C46.0753 6.37179 45.7389 5.72153 45.3674 5.09131C44.2326 6.46949 43.1951 8.28789 42.1465 10.6682Z" fill="#0D82CA"/>
<path d="M43.1659 2.35711C43.9766 3.03625 44.7033 3.97199 45.367 5.09245C45.576 4.83584 45.7884 4.59803 46.0085 4.3746C45.1174 3.5313 44.1066 2.82425 43.0088 2.27637L43.1415 2.33941L43.1659 2.35711Z" fill="#0D82CA"/>
<path d="M9.0127 41.5322C20.3312 19.7214 25.6935 5.9175 35.1605 2.18115C25.3993 6.00156 14.4082 20.4083 9.0127 41.5322Z" fill="url(#paint2_linear_51_1395)"/>
<path d="M46.0077 4.37451C45.7876 4.60015 45.5775 4.83575 45.3662 5.09236C45.7224 5.68743 46.0531 6.3356 46.3761 7.03906C46.7942 6.7183 47.2123 6.41634 47.6248 6.1188C47.1272 5.50029 46.5869 4.91743 46.0077 4.37451Z" fill="#127BCA"/>
<path d="M14.1511 53.8952L13.9454 53.9195H13.9067L13.7319 53.9372H13.7032L13.2873 53.9649H13.2441C24.6987 53.6441 29.936 47.9091 32.5342 39.5891C34.5086 33.2833 36.1312 27.9697 37.5525 23.5122C32.7543 30.2659 27.934 38.316 23.0883 47.3361C20.7522 51.683 17.1984 53.4992 14.1511 53.8863" fill="url(#paint3_linear_51_1395)"/>
<path d="M14.1515 53.8905C17.1988 53.5023 20.7526 51.6883 23.0886 47.3392C27.9344 38.3235 32.7569 30.2712 37.5507 23.5164C39.295 18.0424 40.734 13.8525 42.1453 10.6626C32.5899 19.7579 22.9979 34.8814 14.1504 53.885" fill="url(#paint4_linear_51_1395)"/>
<path d="M9.01282 41.5337C6.84606 45.724 4.61037 49.8782 2.30664 53.9948H6.62479C7.17012 49.7978 7.9672 45.6373 9.01171 41.5359" fill="#05A1E6"/>
<path d="M38.8161 1.23863L38.7243 1.25633L38.5628 1.27955L38.4677 1.29615L38.2973 1.32601L38.2243 1.34371L37.856 1.40786H37.814L37.6348 1.44326L37.5452 1.46759L37.3716 1.50188L37.2897 1.52179L36.6825 1.67885L36.6128 1.69876L36.4292 1.75296L36.3462 1.77619L36.1659 1.83038L36.0996 1.84808L35.6781 1.9963L35.4868 2.06266L35.4072 2.09585L35.2291 2.16221L35.1693 2.19097C25.7035 5.92621 20.3412 19.7301 9.02267 41.541C7.97593 45.6419 7.17882 49.8025 6.63574 53.9999H7.24077L11.3941 53.9822H13.2999L13.7147 53.9545H13.7412L13.916 53.9368H13.9569L14.1626 53.9125C23.0113 34.9078 32.6032 19.7854 42.1576 10.6901C43.2084 8.30982 44.2448 6.49142 45.3774 5.11545C44.7137 3.99499 43.9881 3.05703 43.1785 2.37679L43.1553 2.35909L43.0203 2.29383L42.8865 2.22636L42.7571 2.16331L42.6033 2.09916L42.4839 2.04717L42.2328 1.9421L42.1255 1.90228L41.9386 1.82707L41.8379 1.79388L41.578 1.70429H41.557L41.2561 1.61912L41.1886 1.59811L40.9353 1.52732L40.8767 1.51073C40.6687 1.45687 40.4588 1.41075 40.2474 1.37247L40.1821 1.35477L39.9089 1.31052L39.8547 1.29393L39.5317 1.2508H39.4753L39.2253 1.22314L38.8294 1.25965" fill="url(#paint5_linear_51_1395)"/>
<path d="M39.2148 1.20383L39.2845 1.22153L39.4615 1.24033H39.5212L39.8442 1.28236L39.8984 1.30006L40.1705 1.34541L40.2391 1.362L40.8662 1.50137L40.9237 1.51907L41.1759 1.58985L41.2456 1.61087L41.5454 1.69604L41.5686 1.71374L41.8307 1.80333L41.9303 1.8354L42.1183 1.91172L42.2245 1.94933L42.4745 2.0533L42.5961 2.10529L42.7466 2.17054L42.8793 2.23359L43.0109 2.30217C44.0938 2.83309 45.0892 3.54209 46.0117 4.40152C46.3524 4.04425 46.7063 3.72349 47.0758 3.4348C45.0594 2.00463 42.7731 1.18945 40.1395 1.18945C39.8343 1.18945 39.529 1.20715 39.2193 1.23038" fill="#7DCBEC"/>
<path d="M46.0078 4.37443C46.573 4.89982 47.1139 5.48604 47.6249 6.11872C48.1204 5.77473 48.6115 5.44291 49.1037 5.1332C48.4761 4.50113 47.7956 3.92386 47.0697 3.40771C46.7013 3.6953 46.3485 4.01827 46.0078 4.37443Z" fill="#5EC5ED"/>
<path d="M38.922 1.27505L39.8428 1.23603C42.4783 1.23603 44.7623 2.05109 46.7779 3.48047C48.9052 1.79983 51.4789 1.2137 55.0523 1.2137H37.749L38.922 1.27505Z" fill="url(#paint6_linear_51_1395)"/>
<path d="M55.0517 1.21436C51.4783 1.21436 48.9102 1.80049 46.7773 3.48112C47.4809 3.97806 48.1621 4.55886 48.8098 5.20654C51.7747 3.3249 54.7059 2.07409 57.5981 1.53249C58.7036 1.3259 59.8035 1.21981 60.8867 1.21981L55.0517 1.21436Z" fill="url(#paint7_linear_51_1395)"/>
<path d="M47.9033 11.0276C52.7889 25.9675 54.6394 52.6174 68.9255 52.6174C70.0117 52.6174 71.1122 52.5113 72.215 52.3011C59.2296 49.2738 57.6899 22.9136 49.7649 9.26123C49.1333 9.8383 48.5127 10.4272 47.9033 11.0276Z" fill="url(#paint8_linear_51_1395)"/>
<path d="M49.7646 9.26152C57.6897 22.9128 59.2294 49.2729 72.2148 52.3014C73.257 52.1046 74.2824 51.8276 75.282 51.4729C63.625 45.7611 60.4041 20.1642 51.4039 7.84131C50.8597 8.2948 50.3122 8.76931 49.7646 9.26152Z" fill="url(#paint9_linear_51_1395)"/>
<path d="M84.3814 46.209C85.6232 45.2171 86.819 44.1689 87.9651 43.0677C83.001 28.1987 81.2235 1.16602 66.8378 1.16602C65.8091 1.16602 64.7716 1.26224 63.7363 1.4536C76.8401 4.71322 78.5191 33.2225 84.3814 46.209Z" fill="url(#paint10_linear_51_1395)"/>
<path d="M84.1298 49.3673C83.5572 48.8137 83.0159 48.2288 82.5083 47.6152C80.0882 49.3286 77.6769 50.6282 75.2822 51.4744C76.135 51.8902 77.0276 52.1999 77.9766 52.3913C78.7111 52.5417 79.4732 52.6192 80.2718 52.6192C82.9607 52.6192 85.0865 52.3006 86.8939 51.4334C85.8984 50.8937 84.9848 50.1968 84.1298 49.3673Z" fill="#1969BC"/>
<path d="M60.3857 2.38777C72.1224 8.52652 73.1433 36.3268 82.5085 47.6144C83.1367 47.1719 83.7584 46.7029 84.3789 46.2085C78.5166 33.222 76.8409 4.70943 63.7394 1.45312C62.6211 1.66217 61.5051 1.97188 60.3857 2.38777Z" fill="url(#paint11_linear_51_1395)"/>
<path d="M51.4043 7.84117C60.4045 20.164 63.6254 45.7621 75.2824 51.4739C77.6782 50.6277 80.0894 49.3292 82.5084 47.6148C73.1432 36.3272 72.1223 8.52805 60.3857 2.38818C57.407 3.49648 54.4162 5.34253 51.4043 7.84117Z" fill="url(#paint12_linear_51_1395)"/>
<path d="M129.159 0.00553159C122.521 25.6047 108.657 46.1668 97.034 51.3499H97.0108L96.3837 51.6187L96.3073 51.6485L96.1293 51.7171L96.0496 51.7503L95.7587 51.8531L95.6393 51.8952L95.4944 51.9427L95.355 51.9914L95.2311 52.0334L94.9834 52.1086L94.8772 52.1363L94.7102 52.1816L94.5962 52.2126L94.4137 52.2602L94.1914 52.3088C94.7168 52.5024 95.2643 52.6008 95.8538 52.6008C106.876 52.6008 117.99 32.8484 136.378 0H129.158L129.159 0.00553159Z" fill="url(#paint13_linear_51_1395)"/>
<path d="M103.233 14.1781C101.054 21.1542 99.2922 26.9092 97.7559 31.6443C103.732 23.4206 109.619 13.0765 115.223 1.13965C108.683 3.19364 105.196 7.8945 103.233 14.1781Z" fill="url(#paint14_linear_51_1395)"/>
<path d="M97.9445 50.9155C97.6403 51.0704 97.3339 51.2175 97.0342 51.3513C108.657 46.1671 122.523 25.605 129.159 0.00585938H127.814C112.564 27.2498 107.659 45.488 97.9445 50.9155Z" fill="url(#paint15_linear_51_1395)"/>
<path d="M90.3545 48.6273C92.8841 45.5402 94.9425 40.293 97.7553 31.6445C94.5112 36.1009 91.246 39.9313 87.9775 43.0549L87.9609 43.0825C88.6744 45.2184 89.4564 47.1042 90.3479 48.6262" fill="#079AE1"/>
<path d="M90.3545 48.6265C89.494 49.6772 88.5814 50.4769 87.5683 51.0698C87.347 51.1992 87.1214 51.3209 86.8936 51.4315C87.9932 52.0276 89.197 52.4073 90.4397 52.5497L91.0192 52.6006H91.0535L91.3323 52.6183H92.278L92.3852 52.6006L92.5943 52.5829H92.6961L92.9228 52.5586H92.9416L93.0113 52.542L93.2535 52.5044H93.3243L93.5964 52.459H93.6407L94.1837 52.344C92.6828 51.7954 91.4274 50.5002 90.3467 48.6563" fill="#1969BC"/>
<path d="M68.9268 52.6185C70.0129 52.6185 71.1124 52.5123 72.2151 52.2999C73.2576 52.1052 74.2831 51.829 75.2823 51.4737C76.1351 51.8896 77.0288 52.1993 77.9756 52.3928C78.7101 52.5422 79.4733 52.6196 80.273 52.6196L68.9268 52.6185ZM80.273 52.6196C82.9596 52.6196 85.0877 52.2999 86.894 51.4316C87.9935 52.0282 89.1973 52.4082 90.4401 52.551L91.0196 52.6008H91.0539L91.3327 52.6185H91.6667L80.273 52.6196Z" fill="#1E5CB3"/>
<path d="M91.666 52.6184H92.2865L92.3938 52.6007L92.6051 52.583H92.7068L92.9325 52.5587H92.9513L93.0199 52.541L93.2621 52.5045L93.3362 52.4879L93.6094 52.4436H93.6525L94.1956 52.3286C94.721 52.5222 95.2685 52.6206 95.8581 52.6206L91.6682 52.6383L91.666 52.6184Z" fill="#1D60B5"/>
<path d="M87.969 43.0831V43.0654C86.8229 44.1666 85.6271 45.2148 84.3853 46.2067C83.7747 46.6932 83.1502 47.162 82.5127 47.6125C83.0392 48.2408 83.5734 48.8292 84.1364 49.3657C84.9903 50.1941 85.9028 50.8921 86.8994 51.4307C87.1262 51.319 87.3529 51.1973 87.573 51.069C88.5884 50.4762 89.4987 49.6754 90.3603 48.6257C89.4688 47.1037 88.6868 45.2168 87.9745 43.082" fill="#175FAB"/>
<path d="M123.557 0.00585938H116.786L115.713 0.057842L115.214 1.12632C109.609 13.0643 103.724 23.4083 97.7483 31.6321C94.9389 40.2794 92.8771 45.5278 90.3486 48.6138C91.4293 50.4587 92.6869 51.755 94.1823 52.3047L94.2996 52.2793H94.3239L94.4068 52.2616L94.5949 52.2152L94.7066 52.1831L94.8736 52.1399L94.9776 52.1101L95.2276 52.0349L95.3514 51.9928L95.4908 51.942L95.6346 51.8966L95.7518 51.8524L96.0438 51.7495L96.1246 51.7196L96.3038 51.65L96.379 51.6223L97.0072 51.3535H97.0294C97.3291 51.2219 97.6344 51.0726 97.9375 50.9177C107.654 45.4891 112.56 27.252 127.811 0.0091758H123.551L123.557 0.00585938Z" fill="url(#paint16_linear_51_1395)"/>
<path d="M97.7559 31.6482C99.2945 26.9098 101.052 21.157 103.235 14.1788C105.201 7.89178 108.683 3.19093 115.22 1.14025L115.724 0.0717773C105.066 0.709987 100.084 6.132 97.5789 14.1611C93.1944 28.1784 90.5387 37.2649 87.9814 43.0552C91.2466 39.9328 94.5118 36.1002 97.7559 31.6482Z" fill="url(#paint17_linear_51_1395)"/>
<defs>
<linearGradient id="paint0_linear_51_1395" x1="36.9976" y1="14.4978" x2="47.3462" y2="14.4978" gradientUnits="userSpaceOnUse">
<stop stop-color="#33BDF2" stop-opacity="0.698"/>
<stop offset="1" stop-color="#1DACD8"/>
</linearGradient>
<linearGradient id="paint1_linear_51_1395" x1="0.270344" y1="26.7759" x2="38.6587" y2="26.7759" gradientUnits="userSpaceOnUse">
<stop stop-color="#05A1E6" stop-opacity="0.247"/>
<stop offset="1" stop-color="#05A1E6"/>
</linearGradient>
<linearGradient id="paint2_linear_51_1395" x1="22.2917" y1="50.9995" x2="22.2917" y2="-1.56964" gradientUnits="userSpaceOnUse">
<stop stop-color="#318ED5"/>
<stop offset="1" stop-color="#38A7E4"/>
</linearGradient>
<linearGradient id="paint3_linear_51_1395" x1="25.125" y1="51.2795" x2="25.125" y2="0.0481767" gradientUnits="userSpaceOnUse">
<stop stop-color="#05A1E6"/>
<stop offset="1" stop-color="#05A1E6" stop-opacity="0.549"/>
</linearGradient>
<linearGradient id="paint4_linear_51_1395" x1="28.3376" y1="53.9579" x2="28.3376" y2="10.6668" gradientUnits="userSpaceOnUse">
<stop stop-color="#1959A6"/>
<stop offset="0.5" stop-color="#05A1E6"/>
<stop offset="0.918" stop-color="#7EC5EA"/>
<stop offset="1" stop-color="#7EC5EA"/>
</linearGradient>
<linearGradient id="paint5_linear_51_1395" x1="29.6355" y1="51.0918" x2="21.3799" y2="4.27215" gradientUnits="userSpaceOnUse">
<stop stop-color="#165096"/>
<stop offset="1" stop-color="#0D82CA"/>
</linearGradient>
<linearGradient id="paint6_linear_51_1395" x1="36.5652" y1="-5.29539" x2="98.6303" y2="20.4487" gradientUnits="userSpaceOnUse">
<stop stop-color="#97D6EE"/>
<stop offset="0.703" stop-color="#55C1EA"/>
<stop offset="1" stop-color="#55C1EA"/>
</linearGradient>
<linearGradient id="paint7_linear_51_1395" x1="53.438" y1="9.27518" x2="102.459" y2="-12.9462" gradientUnits="userSpaceOnUse">
<stop stop-color="#7ACCEC"/>
<stop offset="1" stop-color="#3FB7ED"/>
</linearGradient>
<linearGradient id="paint8_linear_51_1395" x1="60.3014" y1="0.790614" x2="60.3014" y2="65.5477" gradientUnits="userSpaceOnUse">
<stop stop-color="#0994DC"/>
<stop offset="0.35" stop-color="#66CEF5"/>
<stop offset="0.846" stop-color="#127BCA"/>
<stop offset="1" stop-color="#127BCA"/>
</linearGradient>
<linearGradient id="paint9_linear_51_1395" x1="62.7394" y1="-0.766826" x2="62.7394" y2="65.4708" gradientUnits="userSpaceOnUse">
<stop stop-color="#0E76BC"/>
<stop offset="0.36" stop-color="#36AEE8"/>
<stop offset="0.846" stop-color="#00ADEF"/>
<stop offset="1" stop-color="#00ADEF"/>
</linearGradient>
<linearGradient id="paint10_linear_51_1395" x1="75.8465" y1="51.0453" x2="75.8465" y2="-1.65884" gradientUnits="userSpaceOnUse">
<stop stop-color="#1C63B7"/>
<stop offset="0.5" stop-color="#33BDF2"/>
<stop offset="1" stop-color="#33BDF2" stop-opacity="0.42"/>
</linearGradient>
<linearGradient id="paint11_linear_51_1395" x1="72.2854" y1="-7.68743" x2="72.2854" y2="61.2604" gradientUnits="userSpaceOnUse">
<stop stop-color="#166AB8"/>
<stop offset="0.4" stop-color="#36AEE8"/>
<stop offset="0.846" stop-color="#0798DD"/>
<stop offset="1" stop-color="#0798DD"/>
</linearGradient>
<linearGradient id="paint12_linear_51_1395" x1="67.2055" y1="-7.14868" x2="67.2055" y2="66.1685" gradientUnits="userSpaceOnUse">
<stop stop-color="#124379"/>
<stop offset="0.39" stop-color="#1487CB"/>
<stop offset="0.78" stop-color="#165197"/>
<stop offset="1" stop-color="#165197"/>
</linearGradient>
<linearGradient id="paint13_linear_51_1395" x1="115.364" y1="49.6751" x2="115.364" y2="-1.66595" gradientUnits="userSpaceOnUse">
<stop stop-color="#136AB4"/>
<stop offset="0.6" stop-color="#59CAF5" stop-opacity="0.549"/>
<stop offset="1" stop-color="#59CAF5" stop-opacity="0.235"/>
</linearGradient>
<linearGradient id="paint14_linear_51_1395" x1="106.222" y1="24.5336" x2="106.222" y2="0.0657791" gradientUnits="userSpaceOnUse">
<stop stop-color="#05A1E6"/>
<stop offset="0.874" stop-color="#0495D6"/>
<stop offset="1" stop-color="#0495D6"/>
</linearGradient>
<linearGradient id="paint15_linear_51_1395" x1="118.148" y1="-2.10013" x2="108.199" y2="54.3213" gradientUnits="userSpaceOnUse">
<stop stop-color="#38A7E4" stop-opacity="0.329"/>
<stop offset="0.962" stop-color="#0E88D3"/>
<stop offset="1" stop-color="#0E88D3"/>
</linearGradient>
<linearGradient id="paint16_linear_51_1395" x1="108.759" y1="-0.0864343" x2="108.759" y2="53.2924" gradientUnits="userSpaceOnUse">
<stop stop-color="#168CD4"/>
<stop offset="0.5" stop-color="#1C87CC"/>
<stop offset="1" stop-color="#154B8D"/>
</linearGradient>
<linearGradient id="paint17_linear_51_1395" x1="101.475" y1="2.81549" x2="101.475" y2="55.0253" gradientUnits="userSpaceOnUse">
<stop stop-color="#1DA7E7"/>
<stop offset="1" stop-color="#37ABE7" stop-opacity="0"/>
</linearGradient>
</defs>
</svg>
