<svg width="103" height="54" viewBox="0 0 103 54" fill="none" xmlns="http://www.w3.org/2000/svg">
<path d="M0.0703125 27C0.0703125 41.9116 23.0508 54 51.3972 54C79.7439 54 102.724 41.9116 102.724 27C102.724 12.0887 79.7439 0 51.3972 0C23.0508 0.00025177 0.0703125 12.0887 0.0703125 27Z" fill="url(#paint0_radial_932_3758)"/>
<path d="M51.3961 51.9947C78.6357 51.9947 100.718 40.8037 100.718 26.9992C100.718 13.195 78.6357 2.00391 51.3961 2.00391C24.1566 2.00391 2.07422 13.195 2.07422 26.9992C2.07422 40.8039 24.1568 51.9947 51.3961 51.9947Z" fill="#777BB3"/>
<path d="M27.9556 30.0982C30.1952 30.0982 31.8674 29.6853 32.9253 28.8709C33.9719 28.065 34.6948 26.6688 35.0738 24.7213C35.4271 22.9008 35.2926 21.6297 34.6737 20.944C34.0412 20.2434 32.6739 19.8881 30.6094 19.8881H27.0298L25.0455 30.0986H27.9556V30.0982ZM16.2484 42.6755C16.1662 42.6756 16.085 42.6575 16.0107 42.6225C15.9364 42.5875 15.8707 42.5364 15.8185 42.4731C15.7662 42.4097 15.7286 42.3355 15.7084 42.2558C15.6883 42.1762 15.686 42.0931 15.7018 42.0124L20.9609 14.9546C20.9856 14.8277 21.0537 14.7133 21.1534 14.6311C21.2532 14.5489 21.3784 14.5039 21.5077 14.5039H32.842C36.4041 14.5039 39.0556 15.4713 40.7219 17.3791C42.3975 19.2969 42.9148 21.978 42.2596 25.3472C41.9932 26.7196 41.5345 27.9945 40.897 29.1361C40.2586 30.2787 39.4147 31.3358 38.3888 32.279C37.1602 33.4285 35.7703 34.2621 34.2608 34.7527C32.7751 35.2365 30.8671 35.482 28.5897 35.482H24.0001L22.6892 42.2248C22.6646 42.3517 22.5966 42.466 22.4968 42.5483C22.3971 42.6305 22.2719 42.6755 22.1426 42.6755H16.2484Z" fill="black"/>
<path d="M27.4915 20.4449H30.6115C33.1031 20.4449 33.9687 20.9918 34.2629 21.3174C34.7507 21.8583 34.8427 22.9991 34.5293 24.6159C34.177 26.4257 33.5238 27.7093 32.5878 28.4299C31.6297 29.1676 30.0715 29.5414 27.9576 29.5414H25.7236L27.4915 20.4449ZM32.8435 13.9473H21.5091C21.2506 13.9473 21.0001 14.0372 20.8006 14.2017C20.6012 14.3661 20.4651 14.5948 20.4158 14.8486L15.1571 41.9066C15.1258 42.0679 15.1306 42.234 15.171 42.3932C15.2115 42.5524 15.2867 42.7007 15.3911 42.8274C15.4956 42.9541 15.6268 43.0562 15.7754 43.1262C15.9239 43.1963 16.0861 43.2327 16.2503 43.2327H22.1444C22.403 43.2328 22.6535 43.1429 22.853 42.9784C23.0526 42.814 23.1887 42.5852 23.238 42.3314L24.4609 36.0391H28.5915C30.9273 36.0391 32.8935 35.7843 34.4354 35.2823C36.021 34.7672 37.4798 33.8938 38.7709 32.6861C39.8388 31.7039 40.7183 30.6011 41.3847 29.4081C42.0514 28.2151 42.5303 26.8844 42.8082 25.4536C43.4979 21.9071 42.9376 19.0673 41.143 17.0131C39.3661 14.9789 36.5734 13.9473 32.8435 13.9473ZM24.3722 30.6553H27.9576C30.3341 30.6553 32.104 30.2076 33.2671 29.3123C34.4304 28.4169 35.2148 26.9222 35.6225 24.8279C36.0124 22.8171 35.8347 21.3981 35.0896 20.5712C34.3432 19.7444 32.8508 19.3311 30.6115 19.3311H26.5731L24.3722 30.6553ZM32.8435 15.0612C36.2533 15.0612 38.7408 15.956 40.3042 17.7458C41.8675 19.5356 42.3384 22.0338 41.7147 25.2412C41.458 26.5624 41.0236 27.7705 40.4123 28.8647C39.8003 29.9597 39.0012 30.9612 38.0135 31.8693C36.8364 32.9708 35.5292 33.7557 34.0903 34.2232C32.6516 34.6919 30.8191 34.9252 28.5915 34.9252H23.5425L22.1444 42.1188H16.2503L21.5091 15.0614L32.8435 15.0612Z" fill="white"/>
<path d="M55.7759 35.4823C55.6937 35.4823 55.6126 35.4642 55.5382 35.4292C55.4639 35.3941 55.3983 35.3431 55.346 35.2797C55.2937 35.2163 55.2562 35.1421 55.2359 35.0625C55.2157 34.9828 55.2134 34.8997 55.2291 34.8191L57.5556 22.8471C57.7768 21.7087 57.7222 20.8915 57.4019 20.5462C57.2059 20.335 56.617 19.9811 54.876 19.9811H50.6615L47.7367 35.0317C47.712 35.1586 47.644 35.2729 47.5442 35.3551C47.4445 35.4374 47.3192 35.4823 47.1899 35.4823H41.3422C41.2601 35.4823 41.1789 35.4642 41.1046 35.4292C41.0303 35.3941 40.9646 35.3431 40.9124 35.2797C40.8601 35.2163 40.8225 35.1421 40.8023 35.0625C40.7821 34.9828 40.7797 34.8997 40.7954 34.8191L46.0541 7.7612C46.0789 7.63432 46.1469 7.51998 46.2467 7.43777C46.3465 7.35556 46.4717 7.31058 46.601 7.31055H52.4487C52.5308 7.31044 52.612 7.32854 52.6864 7.36355C52.7607 7.39856 52.8264 7.44961 52.8787 7.51302C52.931 7.57643 52.9686 7.65064 52.9888 7.73031C53.0089 7.80997 53.0112 7.89313 52.9955 7.97379L51.7264 14.5042H56.2603C59.7142 14.5042 62.0564 15.1132 63.4204 16.3658C64.8109 17.6437 65.2445 19.6872 64.7101 22.44L62.2631 35.031C62.2384 35.1579 62.1704 35.2722 62.0707 35.3545C61.971 35.4367 61.8458 35.4817 61.7165 35.4817H55.7759V35.4823Z" fill="black"/>
<path d="M52.447 6.75391H46.5994C46.3408 6.75391 46.0903 6.84383 45.8908 7.00828C45.6914 7.17272 45.5553 7.40144 45.5059 7.65522L40.247 34.7133C40.2157 34.8746 40.2204 35.0408 40.2609 35.2C40.3013 35.3592 40.3765 35.5075 40.4811 35.6342C40.5856 35.761 40.7169 35.863 40.8655 35.9331C41.0141 36.0031 41.1763 36.0394 41.3406 36.0394H47.1881C47.4467 36.0394 47.6972 35.9494 47.8967 35.785C48.0962 35.6206 48.2324 35.3918 48.2817 35.138L51.119 20.5382H54.8744C56.6124 20.5382 56.9773 20.9095 56.9918 20.9254C57.0971 21.0388 57.2361 21.5641 57.0072 22.7411L54.6807 34.7131C54.6493 34.8744 54.6541 35.0406 54.6945 35.1998C54.735 35.359 54.8102 35.5073 54.9147 35.634C55.0192 35.7608 55.1505 35.8628 55.2991 35.9329C55.4477 36.0029 55.61 36.0392 55.7743 36.0392H61.7149C61.9735 36.0392 62.224 35.9492 62.4235 35.7848C62.623 35.6204 62.7592 35.3916 62.8085 35.1378L65.2549 22.5466C65.829 19.5909 65.338 17.3737 63.7956 15.9559C62.3238 14.6044 59.8583 13.9473 56.2587 13.9473H52.4003L53.5405 8.07998C53.5718 7.91876 53.5671 7.75263 53.5267 7.59345C53.4863 7.43427 53.4112 7.28598 53.3068 7.1592C53.2022 7.03247 53.0709 6.93042 52.9223 6.86036C52.7736 6.79029 52.6114 6.75394 52.447 6.75391ZM52.447 7.8678L51.0489 15.0614H56.2587C59.5367 15.0614 61.7974 15.6335 63.0418 16.7765C64.2862 17.92 64.6589 19.773 64.1617 22.3344L61.7149 34.9255H55.7743L58.1006 22.9537C58.3654 21.5916 58.268 20.6628 57.8086 20.1674C57.3487 19.6722 56.3705 19.4243 54.8746 19.4243H50.2008L47.1885 34.9255H41.3408L46.5996 7.8678H52.447Z" fill="white"/>
<path d="M73.9637 30.0984C76.2034 30.0984 77.8755 29.6855 78.9334 28.8711C79.98 28.0656 80.7029 26.6694 81.0821 24.7215C81.4354 22.901 81.3009 21.6299 80.682 20.9442C80.0495 20.2436 78.6823 19.8883 76.6179 19.8883H73.0385L71.0542 30.0988H73.9637V30.0984ZM62.2563 42.6757C62.1741 42.6757 62.093 42.6575 62.0187 42.6225C61.9443 42.5875 61.8787 42.5364 61.8264 42.473C61.7741 42.4097 61.7366 42.3355 61.7163 42.2558C61.6961 42.1762 61.6938 42.0931 61.7095 42.0124L66.9684 14.9546C66.9931 14.8276 67.0612 14.7133 67.161 14.6311C67.2608 14.5488 67.3861 14.5039 67.5154 14.5039H78.8497C82.412 14.5039 85.0631 15.4713 86.7298 17.3791C88.4052 19.2967 88.9223 21.9776 88.2675 25.347C88.0005 26.7196 87.542 27.9945 86.9045 29.1359C86.2661 30.2787 85.4222 31.3358 84.3963 32.279C83.168 33.4285 81.7778 34.2621 80.2683 34.7525C78.7826 35.2365 76.8746 35.482 74.5972 35.482H70.0076L68.6976 42.225C68.6729 42.3519 68.6048 42.4663 68.505 42.5485C68.4052 42.6308 68.2799 42.6757 68.1506 42.6757H62.2563Z" fill="black"/>
<path d="M73.4971 20.4449H76.6174C79.1089 20.4449 79.9743 20.9918 80.2684 21.3174C80.7566 21.8583 80.8485 22.9991 80.535 24.6155C80.1827 26.4257 79.5293 27.7093 78.5936 28.4299C77.6353 29.1676 76.0774 29.5414 73.9632 29.5414H71.7294L73.4971 20.4449ZM78.8492 13.9473H67.5151C67.2566 13.9473 67.0062 14.0372 66.8067 14.2017C66.6072 14.3661 66.4712 14.5948 66.4219 14.8486L61.163 41.9066C61.1317 42.0679 61.1364 42.234 61.1769 42.3932C61.2174 42.5524 61.2925 42.7007 61.397 42.8274C61.5015 42.9541 61.6327 43.0562 61.7812 43.1262C61.9298 43.1963 62.092 43.2327 62.2562 43.2327H68.1505C68.409 43.2327 68.6594 43.1427 68.8589 42.9783C69.0584 42.8139 69.1945 42.5852 69.2439 42.3314L70.4666 36.0391H74.5972C76.9329 36.0391 78.8992 35.7843 80.441 35.2823C82.0267 34.7672 83.4858 33.8934 84.777 32.6857C85.8449 31.7035 86.7241 30.6011 87.3906 29.4081C88.0574 28.2151 88.5364 26.8844 88.8142 25.4536C89.504 21.9069 88.9437 19.0669 87.1491 17.0129C85.372 14.9789 82.5797 13.9475 78.8496 13.9475M70.3784 30.6553H73.9636C76.34 30.6553 78.1101 30.2076 79.2731 29.3123C80.4366 28.4169 81.2207 26.9222 81.6284 24.8279C82.0186 22.8171 81.841 21.3981 81.0954 20.5712C80.3493 19.7444 78.8568 19.3311 76.6176 19.3311H72.5789L70.3784 30.6553ZM78.8496 15.0612C82.2593 15.0612 84.7467 15.956 86.3102 17.7458C87.8738 19.5356 88.3441 22.0338 87.7206 25.2412C87.4638 26.5624 87.0297 27.7705 86.4182 28.8647C85.8064 29.9597 85.007 30.9612 84.0194 31.8693C82.8425 32.9708 81.5351 33.7557 80.0964 34.2232C78.6575 34.6919 76.8251 34.9252 74.5974 34.9252H69.5486L68.1507 42.1188H62.2566L67.5153 15.0614L78.8496 15.0612Z" fill="white"/>
<defs>
<radialGradient id="paint0_radial_932_3758" cx="0" cy="0" r="1" gradientUnits="userSpaceOnUse" gradientTransform="translate(30.9049 9.55351) scale(84.2668 84.2668)">
<stop stop-color="#AEB2D5"/>
<stop offset="0.3" stop-color="#AEB2D5"/>
<stop offset="0.75" stop-color="#484C89"/>
<stop offset="1" stop-color="#484C89"/>
</radialGradient>
</defs>
</svg>
