<svg width="59" height="60" viewBox="0 0 59 60" fill="none" xmlns="http://www.w3.org/2000/svg">
<path d="M43.9029 43.3774C44.2765 40.2647 44.1646 39.8083 46.483 40.3125L47.0716 40.3642C48.8543 40.4453 51.1864 40.0774 52.5564 39.441C55.5057 38.0725 57.2545 35.7877 54.3464 36.388C47.7129 37.7565 47.2568 35.5103 47.2568 35.5103C54.2614 25.1172 57.1896 11.9242 54.6621 8.6948C47.7684 -0.113799 35.8355 4.05159 35.6358 4.15973L35.5723 4.17147C34.2616 3.89952 32.7947 3.73704 31.1469 3.7104C28.1451 3.66107 25.8672 4.49737 24.1394 5.80793C24.1394 5.80793 2.85177 -2.96229 3.84211 16.8374C4.05273 21.0493 9.8795 48.7085 16.829 40.3541C19.369 37.2992 21.8237 34.7162 21.8237 34.7162C23.0426 35.526 24.5019 35.9391 26.0325 35.7907L26.1508 35.6898C26.1137 36.0691 26.1301 36.4401 26.1981 36.8793C24.4082 38.8796 24.9341 39.2309 21.3549 39.9676C17.7336 40.7139 19.8611 42.0427 21.2497 42.3899C22.9337 42.8111 26.8292 43.4076 29.4621 39.7227L29.3572 40.1431C30.0595 40.705 30.012 44.1814 30.1116 46.6652C30.2113 49.1492 30.3776 51.4671 30.884 52.8337C31.3903 54.2 31.9877 57.7201 36.6917 56.712C40.6231 55.8695 43.629 54.657 43.9029 43.3774Z" fill="black" stroke="black" stroke-width="6"/>
<path d="M54.3477 36.388C47.7135 37.7564 47.2574 35.5103 47.2574 35.5103C54.2621 25.1165 57.1902 11.9232 54.6633 8.6942C47.7696 -0.113874 35.8362 4.05178 35.637 4.15992L35.5729 4.1714C34.2622 3.89932 32.7954 3.73723 31.1468 3.71032C28.1449 3.66113 25.8679 4.49729 24.14 5.80759C24.14 5.80759 2.85201 -2.96224 3.84209 16.8373C4.05271 21.0495 9.87935 48.7087 16.8291 40.3543C19.3693 37.2994 21.8236 34.7164 21.8236 34.7164C23.0426 35.5262 24.5019 35.9393 26.0318 35.7909L26.1506 35.69C26.1137 36.0693 26.1306 36.4403 26.1983 36.8795C24.4079 38.8798 24.934 39.231 21.355 39.9678C17.7335 40.7141 19.861 42.0429 21.25 42.3901C22.9339 42.8113 26.8297 43.4078 29.4621 39.7229L29.3571 40.1433C30.0586 40.7052 30.5512 43.798 30.4686 46.6017C30.3861 49.4055 30.3309 51.3304 30.8837 52.8339C31.4364 54.3374 31.9873 57.7203 36.6922 56.7121C40.6237 55.8697 42.6609 53.6864 42.9443 50.0446C43.1455 47.4555 43.6006 47.8383 43.6294 45.5235L43.9944 44.4277C44.4154 40.918 44.0613 39.7858 46.4834 40.3124L47.072 40.3641C48.8547 40.4452 51.1879 40.0774 52.5573 39.4409C55.5061 38.0724 57.2549 35.7876 54.3474 36.388H54.3477Z" fill="#336791"/>
<path d="M29.7464 38.4004C29.5637 44.9309 29.7923 51.5069 30.4313 53.1051C31.0707 54.7033 32.439 57.8119 37.1443 56.8039C41.0754 55.9611 42.5057 54.3302 43.1263 50.7304C43.5835 48.0818 44.4647 40.7262 44.5778 39.2191" stroke="white" stroke-width="2" stroke-linecap="round" stroke-linejoin="round"/>
<path d="M24.1074 5.66232C24.1074 5.66232 2.80487 -3.04433 3.79521 16.7552C4.00583 20.9674 9.83286 48.6275 16.7825 40.2728C19.3221 37.2175 21.6189 34.8212 21.6189 34.8212" stroke="white" stroke-width="2" stroke-linecap="round" stroke-linejoin="round"/>
<path d="M35.613 4.07233C34.8757 4.30353 47.4628 -0.529076 54.6162 8.61148C57.1431 11.8406 54.2149 25.0339 47.2104 35.4279" stroke="white" stroke-width="2" stroke-linecap="round" stroke-linejoin="round"/>
<path d="M47.211 35.4276C47.211 35.4276 47.6675 37.6745 54.3018 36.3051C57.2086 35.7047 55.4592 37.9898 52.5111 39.3589C50.0917 40.4818 44.6673 40.7696 44.5787 39.2179C44.3506 35.2145 47.4335 36.4308 47.211 35.4276ZM47.211 35.4276C47.0099 34.5242 45.6313 33.6375 44.7193 31.4265C43.9231 29.4966 33.7995 14.6967 47.5267 16.8948C48.0296 16.7907 43.9465 3.83768 31.0998 3.62706C18.256 3.41644 18.6774 19.4221 18.6774 19.4221" stroke="white" stroke-width="2" stroke-linecap="round" stroke-linejoin="bevel"/>
<path d="M26.1503 36.7972C24.3596 38.7974 24.8862 39.1486 21.307 39.8856C17.6855 40.6321 19.8132 41.9606 21.2019 42.3077C22.8858 42.7291 26.7816 43.3256 29.4139 39.6397C30.2155 38.5175 29.4092 36.7269 28.3081 36.2704C27.776 36.05 27.0646 35.7739 26.1503 36.7972Z" stroke="white" stroke-width="2" stroke-linecap="round" stroke-linejoin="round"/>
<path d="M26.0346 36.7625C25.8542 35.5864 26.421 34.187 27.0285 32.5497C27.9414 30.0932 30.0478 27.6363 28.3628 19.8439C27.1068 14.037 18.6828 18.6354 18.6775 19.4227C18.6724 20.2098 19.0585 23.4136 18.5368 27.1445C17.856 32.0128 21.6346 36.1302 25.9856 35.7089" stroke="white" stroke-width="2" stroke-linecap="round" stroke-linejoin="round"/>
<path d="M24.0293 19.3036C23.9913 19.5725 24.5216 20.2901 25.2131 20.3859C25.9034 20.4822 26.4942 19.9214 26.5317 19.6528C26.5691 19.3839 26.0395 19.0877 25.3477 18.9914C24.657 18.895 24.0659 19.0353 24.0294 19.3036H24.0293Z" fill="white" stroke="white"/>
<path d="M45.0559 18.7566C45.0934 19.0255 44.5637 19.7431 43.8721 19.839C43.1813 19.9353 42.5904 19.3745 42.5526 19.1059C42.516 18.8369 43.0458 18.5407 43.7368 18.4444C44.4277 18.3482 45.0185 18.4884 45.0559 18.7568V18.7566Z" fill="white" stroke="white"/>
<path d="M47.5271 16.8945C47.6409 19.0039 47.0727 20.4407 47.0011 22.6862C46.8951 25.9502 48.5573 29.686 46.0527 33.4264" stroke="white" stroke-width="2" stroke-linecap="round" stroke-linejoin="round"/>
</svg>
