<svg width="54" height="54" viewBox="0 0 54 54" fill="none" xmlns="http://www.w3.org/2000/svg">
<path d="M26.6801 0.000441406C24.4777 0.0106719 22.3745 0.198512 20.524 0.525993C15.0724 1.48913 14.0826 3.50496 14.0826 7.22263V12.1325H26.9653V13.7691H9.24776C5.50372 13.7691 2.22522 16.0195 1.19986 20.3006C0.0170237 25.2076 -0.0353943 28.2698 1.19986 33.3936C2.11564 37.2074 4.30254 39.9249 8.04658 39.9249H12.476V34.039C12.476 29.7868 16.155 26.0362 20.524 26.0362H33.3917C36.9736 26.0362 39.833 23.0869 39.833 19.4897V7.22263C39.833 3.7314 36.8877 1.10871 33.3917 0.525993C31.1786 0.15759 28.8824 -0.00978907 26.6801 0.000441406ZM19.7131 3.94941C21.0438 3.94941 22.1305 5.05388 22.1305 6.41179C22.1305 7.76495 21.0438 8.85919 19.7131 8.85919C18.3777 8.85919 17.2958 7.76495 17.2958 6.41179C17.2958 5.05377 18.3777 3.94941 19.7131 3.94941Z" fill="url(#paint0_linear_932_3784)"/>
<path d="M41.4391 13.7697V19.4904C41.4391 23.9255 37.6789 27.6584 33.3912 27.6584H20.5234C16.9988 27.6584 14.082 30.675 14.082 34.2049V46.4719C14.082 49.9632 17.118 52.0168 20.5234 53.0184C24.6014 54.2175 28.512 54.4342 33.3912 53.0184C36.6344 52.0794 39.8325 50.1896 39.8325 46.4719V41.562H26.9647V39.9254H46.2739C50.0179 39.9254 51.4131 37.3139 52.7153 33.394C54.0603 29.3586 54.003 25.4778 52.7153 20.301C51.79 16.5737 50.0228 13.7695 46.2739 13.7695H41.4391V13.7697ZM34.202 44.8354C35.5374 44.8354 36.6193 45.9296 36.6193 47.2828C36.6193 48.6408 35.5374 49.7453 34.202 49.7453C32.8713 49.7453 31.7847 48.6408 31.7847 47.2828C31.7846 45.9296 32.8712 44.8354 34.202 44.8354Z" fill="url(#paint1_linear_932_3784)"/>
<defs>
<linearGradient id="paint0_linear_932_3784" x1="-0.969645" y1="1.53569" x2="28.7432" y2="26.8745" gradientUnits="userSpaceOnUse">
<stop stop-color="#5A9FD4"/>
<stop offset="1" stop-color="#306998"/>
</linearGradient>
<linearGradient id="paint1_linear_932_3784" x1="39.9222" y1="42.6261" x2="29.2669" y2="27.6834" gradientUnits="userSpaceOnUse">
<stop stop-color="#FFD43B"/>
<stop offset="1" stop-color="#FFE873"/>
</linearGradient>
</defs>
</svg>
