<svg width="50" height="54" viewBox="0 0 50 54" fill="none" xmlns="http://www.w3.org/2000/svg">
<path d="M45.7709 28.5262C45.2853 27.8967 44.7584 27.2669 44.1953 26.6396C44.5751 26.1999 44.9428 25.75 45.2983 25.2905C48.8859 20.6387 49.9045 16.4187 48.1664 13.4083C46.4284 10.3978 42.265 9.17009 36.4421 9.95119C35.8135 10.0363 35.1875 10.14 34.565 10.262C34.3541 9.64283 34.1243 9.0302 33.8762 8.42495C31.6413 2.99204 28.4962 0 25.02 0C21.5439 0 18.3987 2.99204 16.1639 8.42495C15.9158 9.0302 15.6861 9.64283 15.4751 10.262C14.8526 10.14 14.2267 10.0364 13.5981 9.95119C7.77577 9.17019 3.61187 10.3978 1.87374 13.4083C0.135617 16.4188 1.15423 20.6387 4.74186 25.2905C5.09723 25.7501 5.46503 26.2 5.84485 26.6396C5.28165 27.2669 4.75483 27.8966 4.26925 28.5262C0.681629 33.178 -0.336989 37.398 1.40114 40.4083C2.79765 42.8272 5.75921 44.095 9.88968 44.095C10.9 44.095 11.981 44.0191 13.1254 43.8655C13.8624 43.7666 14.6177 43.6362 15.3872 43.4775C15.6293 44.2035 15.888 44.9044 16.1639 45.5752C18.3987 51.008 21.5439 54 25.02 54C28.4962 54 31.6413 51.008 33.8761 45.5751C34.152 44.9043 34.4107 44.2034 34.6528 43.4774C35.4223 43.6361 36.1777 43.7666 36.9147 43.8654C38.0593 44.019 39.1398 44.0949 40.1504 44.0949C44.2804 44.0949 47.2426 42.827 48.6389 40.4082C50.3771 37.3979 49.3585 33.178 45.7709 28.5262ZM39.6956 12.8805C42.5877 12.8805 44.6319 13.6146 45.4262 14.9903C46.4655 16.7904 45.5056 19.8404 42.7928 23.3581C42.5289 23.6994 42.2574 24.0348 41.9785 24.3639C40.3924 22.8549 38.6069 21.3783 36.6644 19.9711C36.3961 17.6279 35.9927 15.3888 35.4651 13.307C37.0138 13.0212 38.4359 12.8805 39.6956 12.8805ZM29.2203 34.5929C27.7981 35.414 26.3944 36.1506 25.021 36.8055C23.5921 36.1234 22.1906 35.3853 20.8197 34.5929C19.2498 33.6865 17.7474 32.7272 16.33 31.7307C16.2071 30.1568 16.146 28.5787 16.1467 27C16.1467 25.1651 16.2272 23.4036 16.3753 21.7264C17.6661 20.8408 18.9911 20.006 20.347 19.2238C21.9333 18.308 23.496 17.4986 25.0199 16.7891C26.5439 17.4986 28.1067 18.308 29.6929 19.2238C31.0489 20.006 32.3738 20.8408 33.6647 21.7264C33.8127 23.4036 33.8932 25.1651 33.8932 27C33.8932 28.638 33.8289 30.2172 33.7099 31.7307C32.2926 32.7272 30.7902 33.6865 29.2203 34.5929ZM33.2273 35.8598C33.0153 37.2066 32.7582 38.4824 32.4628 39.678C31.2893 39.337 30.0666 38.9244 28.8055 38.4383C29.4776 38.0817 30.1433 37.7132 30.8023 37.3331C31.6214 36.8599 32.4299 36.3687 33.2273 35.8598ZM21.2343 38.4382C19.973 38.9244 18.7506 39.3366 17.577 39.6776C17.2818 38.4822 17.0246 37.2065 16.8127 35.8598C17.61 36.3687 18.4185 36.8599 19.2376 37.333C19.8965 37.7132 20.5622 38.0817 21.2343 38.4382ZM13.0213 29.2089C12.0193 28.3789 11.0805 27.5332 10.2143 26.6797C11.0921 25.8426 12.038 25.0147 13.0441 24.2029C13.0033 25.1347 12.9828 26.0673 12.9827 27C12.9827 27.7413 12.9961 28.4779 13.0213 29.2089ZM16.9002 17.6036C17.1129 16.3429 17.3656 15.1479 17.652 14.0254C18.7762 14.3396 19.9477 14.721 21.1565 15.1704C20.3501 15.5912 19.5528 16.029 18.7651 16.4837C18.1372 16.8464 17.5154 17.2198 16.9002 17.6036ZM28.8834 15.1703C30.0922 14.7209 31.2638 14.3394 32.3881 14.0253C32.6744 15.1479 32.9271 16.3429 33.1398 17.6036C32.5246 17.2198 31.9029 16.8464 31.2751 16.4837C30.4873 16.029 29.6899 15.5911 28.8834 15.1703ZM36.9959 24.2029C38.0021 25.0147 38.9479 25.8426 39.8257 26.6797C38.9595 27.5332 38.0207 28.3789 37.0188 29.2089C37.0443 28.4729 37.0572 27.7365 37.0574 27C37.0574 26.0593 37.0363 25.1262 36.9959 24.2029ZM25.02 3.16406C27.3086 3.16406 29.7396 6.07532 31.4773 11.0001C29.3837 11.5885 27.2133 12.3686 25.02 13.3223C22.8267 12.3686 20.6564 11.5886 18.5627 11.0001C20.3004 6.07532 22.7315 3.16406 25.02 3.16406ZM4.61382 14.9904C5.40821 13.6145 7.45146 12.8806 10.3445 12.8806C11.6041 12.8806 13.0262 13.0213 14.575 13.3072C14.0474 15.3891 13.6441 17.6282 13.3757 19.9712C11.4332 21.3784 9.64774 22.855 8.06159 24.364C7.7827 24.0349 7.51122 23.6995 7.24737 23.3582C4.5344 19.8405 3.57453 16.7905 4.61382 14.9904ZM9.87186 40.9361C6.97969 40.9359 4.9355 40.2019 4.14121 38.8263C3.10193 37.0262 4.0618 33.9762 6.77466 30.4585C7.17266 29.9437 7.58748 29.442 8.01846 28.9544C9.58667 30.4962 11.3667 32.0085 13.3128 33.4526C13.569 35.9064 13.9712 38.2536 14.509 40.4322C12.8016 40.7708 11.2412 40.9362 9.87186 40.9361ZM25.02 50.8359C22.687 50.8359 20.2063 47.81 18.4627 42.7105C20.5917 42.0916 22.7962 41.2767 25.02 40.2861C27.2438 41.2767 29.4483 42.0916 31.5773 42.7105C29.8337 47.81 27.353 50.8359 25.02 50.8359ZM45.8988 38.8263C44.7285 40.8534 40.846 41.4863 35.5309 40.4322C36.0688 38.2536 36.471 35.9064 36.7272 33.4526C38.6734 32.0085 40.4534 30.4962 42.0215 28.9544C42.4524 29.4421 42.8672 29.9437 43.2653 30.4585C45.9783 33.9762 46.9382 37.0262 45.8988 38.8263Z" fill="#61DAFB"/>
<path d="M25.0193 31.8883C27.7192 31.8883 29.9078 29.6996 29.9078 26.9998C29.9078 24.3 27.7192 22.1113 25.0193 22.1113C22.3195 22.1113 20.1309 24.3 20.1309 26.9998C20.1309 29.6996 22.3195 31.8883 25.0193 31.8883Z" fill="#61DAFB"/>
</svg>
