<svg width="55" height="54" viewBox="0 0 55 54" fill="none" xmlns="http://www.w3.org/2000/svg">
<path fill-rule="evenodd" clip-rule="evenodd" d="M42.6743 35.6413L11.7578 53.9993L51.7888 51.2829L54.872 10.918L42.6743 35.6413Z" fill="url(#paint0_linear_934_3881)"/>
<path fill-rule="evenodd" clip-rule="evenodd" d="M51.8556 51.2554L48.4149 27.5078L39.043 39.8831L51.8556 51.2554Z" fill="url(#paint1_linear_934_3881)"/>
<path fill-rule="evenodd" clip-rule="evenodd" d="M51.9017 51.2561L26.6949 49.2773L11.8926 53.9484L51.9017 51.2561Z" fill="url(#paint2_linear_934_3881)"/>
<path fill-rule="evenodd" clip-rule="evenodd" d="M11.9269 53.9534L18.2238 33.3242L4.36719 36.2871L11.9269 53.9534Z" fill="url(#paint3_linear_934_3881)"/>
<path fill-rule="evenodd" clip-rule="evenodd" d="M39.0397 39.9532L33.2456 17.2578L16.6641 32.8008L39.0397 39.9532Z" fill="url(#paint4_linear_934_3881)"/>
<path fill-rule="evenodd" clip-rule="evenodd" d="M53.5584 17.5771L37.8842 4.77539L33.5195 18.8862L53.5584 17.5771Z" fill="url(#paint5_linear_934_3881)"/>
<path fill-rule="evenodd" clip-rule="evenodd" d="M46.228 0.210905L37.0093 5.30534L31.1934 0.142578L46.228 0.210905Z" fill="url(#paint6_linear_934_3881)"/>
<path fill-rule="evenodd" clip-rule="evenodd" d="M0.722656 43.2071L4.58448 36.164L1.46058 27.7734L0.722656 43.2071Z" fill="url(#paint7_linear_934_3881)"/>
<path fill-rule="evenodd" clip-rule="evenodd" d="M1.25391 27.5083L4.39693 36.4236L18.0541 33.3596L33.6462 18.8688L38.0465 4.89219L31.1179 0L19.3383 4.40844C15.6271 7.8603 8.42548 14.6902 8.16583 14.8187C7.90893 14.9499 3.4103 23.4525 1.25391 27.5083Z" fill="white"/>
<path fill-rule="evenodd" clip-rule="evenodd" d="M12.2888 11.4917C20.3323 3.51658 30.7015 -1.19523 34.6809 2.81965C38.6578 6.83453 34.4404 16.5916 26.3969 24.5639C18.3535 32.5363 8.11272 37.5077 4.13611 33.4929C0.156761 29.4807 4.24543 19.464 12.2888 11.4917Z" fill="url(#paint8_linear_934_3881)"/>
<path fill-rule="evenodd" clip-rule="evenodd" d="M11.9297 53.9448L18.1775 33.25L38.9269 39.916C31.4247 46.9509 23.0806 52.898 11.9297 53.9448Z" fill="url(#paint9_linear_934_3881)"/>
<path fill-rule="evenodd" clip-rule="evenodd" d="M33.6719 18.8287L38.9986 39.9279C45.2655 33.3385 50.8902 26.2544 53.6449 17.4922L33.6719 18.8287Z" fill="url(#paint10_linear_934_3881)"/>
<path fill-rule="evenodd" clip-rule="evenodd" d="M53.5912 17.5975C55.723 11.1639 56.215 1.93434 46.1625 0.220703L37.9141 4.77673L53.5912 17.5975Z" fill="url(#paint11_linear_934_3881)"/>
<path fill-rule="evenodd" clip-rule="evenodd" d="M0.722656 43.1132C1.01783 53.7314 8.67862 53.8897 11.9419 53.9829L4.4041 36.3789L0.722656 43.1132Z" fill="#9E1209"/>
<path fill-rule="evenodd" clip-rule="evenodd" d="M33.7031 18.8611C38.5188 21.821 48.2242 27.7654 48.421 27.8747C48.7268 28.0469 52.6053 21.3345 53.4853 17.541L33.7031 18.8611Z" fill="url(#paint12_radial_934_3881)"/>
<path fill-rule="evenodd" clip-rule="evenodd" d="M18.168 33.25L26.5202 49.3642C31.4589 46.6858 35.3262 43.4225 38.8682 39.9269L18.168 33.25Z" fill="url(#paint13_radial_934_3881)"/>
<path fill-rule="evenodd" clip-rule="evenodd" d="M4.37092 36.402L3.1875 50.4936C5.42042 53.5438 8.49238 53.8089 11.7147 53.5711C9.38336 47.7688 4.72622 36.1669 4.37092 36.402Z" fill="url(#paint14_linear_934_3881)"/>
<path fill-rule="evenodd" clip-rule="evenodd" d="M37.8652 4.81342L54.4577 7.142C53.5722 3.38949 50.8528 0.967997 46.2175 0.210938L37.8652 4.81342Z" fill="url(#paint15_linear_934_3881)"/>
<defs>
<linearGradient id="paint0_linear_934_3881" x1="48.2972" y1="58.9103" x2="36.8737" y2="38.7415" gradientUnits="userSpaceOnUse">
<stop stop-color="#FB7655"/>
<stop offset="0.41" stop-color="#E42B1E"/>
<stop offset="0.99" stop-color="#990000"/>
<stop offset="1" stop-color="#990000"/>
</linearGradient>
<linearGradient id="paint1_linear_934_3881" x1="53.989" y1="41.9678" x2="39.2667" y2="32.0882" gradientUnits="userSpaceOnUse">
<stop stop-color="#871101"/>
<stop offset="0.99" stop-color="#911209"/>
<stop offset="1" stop-color="#911209"/>
</linearGradient>
<linearGradient id="paint2_linear_934_3881" x1="42.2092" y1="59.5223" x2="27.4874" y2="49.643" gradientUnits="userSpaceOnUse">
<stop stop-color="#871101"/>
<stop offset="0.99" stop-color="#911209"/>
<stop offset="1" stop-color="#911209"/>
</linearGradient>
<linearGradient id="paint3_linear_934_3881" x1="11.2972" y1="34.8166" x2="13.5795" y2="49.6492" gradientUnits="userSpaceOnUse">
<stop stop-color="white"/>
<stop offset="0.23" stop-color="#E57252"/>
<stop offset="0.46" stop-color="#DE3B20"/>
<stop offset="0.99" stop-color="#A60003"/>
<stop offset="1" stop-color="#A60003"/>
</linearGradient>
<linearGradient id="paint4_linear_934_3881" x1="26.9958" y1="20.968" x2="27.8367" y2="36.1056" gradientUnits="userSpaceOnUse">
<stop stop-color="white"/>
<stop offset="0.23" stop-color="#E4714E"/>
<stop offset="0.56" stop-color="#BE1A0D"/>
<stop offset="0.99" stop-color="#A80D00"/>
<stop offset="1" stop-color="#A80D00"/>
</linearGradient>
<linearGradient id="paint5_linear_934_3881" x1="40.927" y1="6.97578" x2="43.4444" y2="17.8247" gradientUnits="userSpaceOnUse">
<stop stop-color="white"/>
<stop offset="0.18" stop-color="#E46342"/>
<stop offset="0.4" stop-color="#C82410"/>
<stop offset="0.99" stop-color="#A80D00"/>
<stop offset="1" stop-color="#A80D00"/>
</linearGradient>
<linearGradient id="paint6_linear_934_3881" x1="33.2394" y1="3.15483" x2="44.0876" y2="-2.2693" gradientUnits="userSpaceOnUse">
<stop stop-color="white"/>
<stop offset="0.54" stop-color="#C81F11"/>
<stop offset="0.99" stop-color="#BF0905"/>
<stop offset="1" stop-color="#BF0905"/>
</linearGradient>
<linearGradient id="paint7_linear_934_3881" x1="1.78945" y1="31.0353" x2="2.68232" y2="39.9746" gradientUnits="userSpaceOnUse">
<stop stop-color="white"/>
<stop offset="0.31" stop-color="#DE4024"/>
<stop offset="0.99" stop-color="#BF190B"/>
<stop offset="1" stop-color="#BF190B"/>
</linearGradient>
<linearGradient id="paint8_linear_934_3881" x1="-4.34889" y1="42.3902" x2="37.6231" y2="-0.768677" gradientUnits="userSpaceOnUse">
<stop stop-color="#BD0012"/>
<stop offset="0.07" stop-color="white"/>
<stop offset="0.17" stop-color="white"/>
<stop offset="0.27" stop-color="#C82F1C"/>
<stop offset="0.33" stop-color="#820C01"/>
<stop offset="0.46" stop-color="#A31601"/>
<stop offset="0.72" stop-color="#B31301"/>
<stop offset="0.99" stop-color="#E82609"/>
<stop offset="1" stop-color="#E82609"/>
</linearGradient>
<linearGradient id="paint9_linear_934_3881" x1="27.8019" y1="46.744" x2="15.1595" y2="43.6238" gradientUnits="userSpaceOnUse">
<stop stop-color="#8C0C01"/>
<stop offset="0.54" stop-color="#990C00"/>
<stop offset="0.99" stop-color="#A80D0E"/>
<stop offset="1" stop-color="#A80D0E"/>
</linearGradient>
<linearGradient id="paint10_linear_934_3881" x1="49.5143" y1="31.5715" x2="38.2833" y2="21.5054" gradientUnits="userSpaceOnUse">
<stop stop-color="#7E110B"/>
<stop offset="0.99" stop-color="#9E0C00"/>
<stop offset="1" stop-color="#9E0C00"/>
</linearGradient>
<linearGradient id="paint11_linear_934_3881" x1="53.6414" y1="13.1008" x2="48.047" y2="7.12" gradientUnits="userSpaceOnUse">
<stop stop-color="#79130D"/>
<stop offset="0.99" stop-color="#9E120B"/>
<stop offset="1" stop-color="#9E120B"/>
</linearGradient>
<radialGradient id="paint12_radial_934_3881" cx="0" cy="0" r="1" gradientUnits="userSpaceOnUse" gradientTransform="translate(40.0336 21.6975) scale(13.7631 13.7631)">
<stop stop-color="#A80D00"/>
<stop offset="0.99" stop-color="#7E0E08"/>
<stop offset="1" stop-color="#7E0E08"/>
</radialGradient>
<radialGradient id="paint13_radial_934_3881" cx="0" cy="0" r="1" gradientUnits="userSpaceOnUse" gradientTransform="translate(20.9727 39.8342) scale(18.2962 18.2962)">
<stop stop-color="#A30C00"/>
<stop offset="0.99" stop-color="#800E08"/>
<stop offset="1" stop-color="#800E08"/>
</radialGradient>
<linearGradient id="paint14_linear_934_3881" x1="8.01134" y1="53.9335" x2="3.45225" y2="38.466" gradientUnits="userSpaceOnUse">
<stop stop-color="#8B2114"/>
<stop offset="0.43" stop-color="#9E100A"/>
<stop offset="0.99" stop-color="#B3100C"/>
<stop offset="1" stop-color="#B3100C"/>
</linearGradient>
<linearGradient id="paint15_linear_934_3881" x1="42.9873" y1="2.67832" x2="53.2084" y2="7.19007" gradientUnits="userSpaceOnUse">
<stop stop-color="#B31000"/>
<stop offset="0.44" stop-color="#910F08"/>
<stop offset="0.99" stop-color="#791C12"/>
<stop offset="1" stop-color="#791C12"/>
</linearGradient>
</defs>
</svg>
