<svg width="49" height="55" viewBox="0 0 49 55" fill="none" xmlns="http://www.w3.org/2000/svg">
<path d="M42.112 11.2775C42.0746 11.0049 41.8358 10.8541 41.6389 10.8376C41.442 10.8212 37.5981 10.7627 37.5981 10.7627C37.5981 10.7627 34.3833 7.64054 34.0657 7.32276C33.7481 7.00499 33.1278 7.10138 32.887 7.17226L31.2715 7.67239C31.1027 7.12374 30.8535 6.4499 30.4985 5.77279C29.3538 3.58916 27.678 2.43332 25.6524 2.43037H25.6456C25.5052 2.43037 25.3653 2.44355 25.2252 2.45632C25.1663 2.38432 25.1052 2.31408 25.0421 2.24569C24.1603 1.30185 23.0279 0.842007 21.6725 0.881769C19.056 0.956757 16.4516 2.84602 14.3392 6.20121C12.8522 8.56266 11.7225 11.5292 11.4013 13.8251C8.39771 14.7553 6.29624 15.4061 6.25078 15.4204C4.73467 15.8961 4.68699 15.9438 4.48818 17.3722C4.33768 18.4535 0.371094 49.1301 0.371094 49.1301L33.6185 54.8794L48.0281 51.2978C48.0281 51.2978 42.1492 11.5502 42.112 11.2775ZM13.2638 13.2482C14.1629 9.04465 17.6851 2.73834 21.7228 2.62222C22.337 2.60935 22.8544 2.74414 23.2962 3.03492C22.5895 3.40185 21.906 3.92919 21.2648 4.61685C19.6031 6.39949 18.3302 9.16742 17.8225 11.8365L13.2638 13.2482ZM25.2867 9.52538L19.736 11.2441C20.273 9.18978 21.2895 7.14442 22.5387 5.80443C23.0034 5.30599 23.6535 4.74974 24.4232 4.43217C25.1474 5.94112 25.3042 8.08024 25.2867 9.52538ZM27.0259 8.98685C27.0066 7.66206 26.8484 5.81941 26.2313 4.22651C28.2163 4.60261 29.1937 6.84868 29.6062 8.18793L27.0259 8.98685Z" fill="#95BF47"/>
<path d="M25.6327 18.2466L23.959 24.5073C23.959 24.5073 22.0922 23.6572 19.879 23.797C16.6338 24.0019 16.5993 26.0489 16.6317 26.5619C16.8084 29.362 24.1746 29.9739 24.5887 36.5321C24.9145 41.6919 21.8519 45.2213 17.4389 45.5C12.1434 45.8343 9.22754 42.7096 9.22754 42.7096L10.3496 37.9355C10.3496 37.9355 13.2841 40.1495 15.6331 40.0012C17.1675 39.9043 17.7157 38.6564 17.66 37.7738C17.4293 34.1212 11.4311 34.3364 11.0522 28.3349C10.7332 23.2838 14.05 18.1667 21.3687 17.7045C24.1886 17.5266 25.6327 18.2466 25.6327 18.2466Z" fill="white"/>
</svg>
