<svg width="80" height="54" viewBox="0 0 80 54" fill="none" xmlns="http://www.w3.org/2000/svg">
<path d="M19.6121 49.1982H16.5529C16.4496 44.035 16.1527 39.1643 15.6622 34.5863L10.9766 49.1982H8.64669L4.01269 34.5863C3.67278 38.9707 3.45765 43.8414 3.36729 49.1982H0.546875C0.727588 42.6796 1.17937 36.5677 1.90222 30.8623H5.7101L10.1247 44.3319L14.565 30.8623H18.1922C18.9839 37.5401 19.4529 43.6521 19.5992 49.1982H19.6121Z" fill="white"/>
<path d="M32.8881 35.6704C31.6447 42.4385 30.001 47.3651 27.9572 50.4502C26.3696 52.8209 24.627 54.0042 22.7295 53.9999C22.0847 53.9689 21.4517 53.8155 20.8643 53.5481V51.9152C21.2921 51.9717 21.7235 51.9976 22.1551 51.9927C22.935 52.029 23.6992 51.7658 24.2914 51.2569C24.5892 51.0126 24.8305 50.7067 24.9988 50.3602C25.167 50.0137 25.2581 49.6348 25.2659 49.2497C25.1404 48.1819 24.8869 47.1332 24.5108 46.126L21.1547 35.6704H24.1558L26.5696 43.4927C27.1118 45.2697 27.3377 46.5089 27.2473 47.2102C28.6123 43.4837 29.5393 39.6111 30.0096 35.6704H32.8881Z" fill="white"/>
<path d="M46.2933 44.1125C46.3122 44.838 46.1691 45.5586 45.8744 46.2218C45.5796 46.885 45.1406 47.4741 44.5894 47.9462C43.3002 48.9906 41.6705 49.5216 40.0135 49.4371C38.1493 49.419 36.3348 48.8337 34.8115 47.759L35.5989 46.1842C36.8053 46.8446 38.1486 47.2158 39.523 47.2685C40.4407 47.3199 41.3494 47.0632 42.1046 46.5392C42.4183 46.3008 42.6717 45.992 42.8444 45.6378C43.017 45.2836 43.104 44.8938 43.0985 44.4997C43.0985 43.4155 42.3434 42.4861 40.9493 41.7051C39.6585 40.9952 37.0769 39.5237 37.0769 39.5237C36.4178 39.1199 35.8772 38.5491 35.51 37.869C35.1427 37.1889 34.9619 36.4238 34.9858 35.6513C34.9626 34.9727 35.0908 34.2975 35.3609 33.6746C35.6311 33.0517 36.0364 32.4967 36.5477 32.0499C37.6681 31.1036 39.1033 30.613 40.5685 30.6752C42.2118 30.6614 43.8222 31.1353 45.1961 32.037L44.5313 33.5601C43.4232 33.0685 42.2261 32.8093 41.0139 32.7986C40.2359 32.7371 39.463 32.9671 38.8453 33.444C38.5904 33.6575 38.385 33.9241 38.2435 34.225C38.102 34.5259 38.0276 34.854 38.0256 35.1866C38.0256 36.2708 38.8001 37.2131 40.2265 38.007C41.5173 38.7105 44.1505 40.2143 44.1505 40.2143C45.5833 41.2275 46.2933 42.3118 46.2933 44.0867V44.1125Z" fill="#F29111"/>
<path fill-rule="evenodd" clip-rule="evenodd" d="M51.7596 45.5259C51.0238 44.3319 50.6495 42.415 50.6495 39.7753C50.6495 35.1542 52.05 32.8458 54.8511 32.8501C55.4883 32.8066 56.1253 32.9374 56.6938 33.2285C57.2623 33.5196 57.7409 33.96 58.0781 34.5024C58.8224 35.6942 59.1925 37.596 59.1882 40.2078C59.1882 44.8633 57.7898 47.1889 54.9931 47.1846C54.356 47.2267 53.7195 47.0953 53.1513 46.8043C52.583 46.5134 52.1043 46.0738 51.766 45.5323L51.7596 45.5259ZM62.6475 49.6371L59.2785 47.9784C59.5832 47.732 59.8641 47.4576 60.1176 47.1587C61.5461 45.4764 62.2603 42.9873 62.2603 39.6914C62.2603 33.6246 59.8938 30.5912 55.1609 30.5912C54.1338 30.5361 53.1077 30.7168 52.1613 31.1195C51.2148 31.5223 50.3731 32.1364 49.7007 32.9147C48.2766 34.6013 47.5645 37.0818 47.5645 40.3562C47.5645 43.6305 48.197 45.997 49.4619 47.4556C50.6108 48.811 52.3533 49.4951 54.6833 49.4951C55.4927 49.5022 56.299 49.3935 57.0777 49.1724L61.4535 51.7218L62.6475 49.6629V49.6371Z" fill="#F29111"/>
<path d="M73.6194 49.1982H64.9258V30.8623H67.8495V46.9393H73.6194V49.1982Z" fill="#F29111"/>
<path d="M75.7046 49.1918H76.1886V47.3266H76.834V46.9458H75.0527V47.3266H75.6981V49.1918H75.7046ZM79.3963 49.1918H79.8545V46.9458H79.164L78.6025 48.4819L77.9958 46.9458H77.3504V49.1918H77.7828V47.4879L78.4282 49.1918H78.7573L79.4028 47.4879V49.1918H79.3963Z" fill="#F29111"/>
<path fill-rule="evenodd" clip-rule="evenodd" d="M77.2923 24.7244C75.8341 24.6312 74.3729 24.8513 73.0068 25.3698C72.6777 25.5054 72.1484 25.5054 72.1033 25.9249C72.2775 26.0991 72.2969 26.3896 72.4582 26.6348C72.7573 27.1478 73.1439 27.6043 73.6006 27.9837C74.0653 28.3387 74.53 28.6937 75.0205 29.0035C75.8789 29.5327 76.8534 29.8425 77.686 30.3782C78.1765 30.688 78.6606 31.0817 79.1511 31.4173C79.3899 31.5915 79.5448 31.882 79.8546 31.9917V31.9271C79.6997 31.7271 79.6545 31.4366 79.4996 31.2172L78.8542 30.5718C78.2059 29.7135 77.4312 28.9584 76.5566 28.3322C75.8466 27.8417 74.2976 27.177 74.0137 26.396L73.9685 26.3509C74.486 26.2763 74.9958 26.1553 75.4916 25.9894C76.2468 25.7958 76.9309 25.841 77.6989 25.6409C78.0539 25.5505 78.4089 25.4408 78.7638 25.3311V25.131C78.3637 24.7309 78.0797 24.2017 77.6602 23.8402C76.5148 22.8421 75.2958 21.9317 74.0137 21.1166C73.3295 20.6778 72.4453 20.3873 71.716 20.013C71.4514 19.8775 71.0125 19.8129 70.8576 19.587C70.4937 19.0536 70.1886 18.4823 69.9476 17.8832C69.3022 16.6698 68.6568 15.3015 68.1405 14.0107C67.8185 13.1314 67.4457 12.2716 67.0239 11.4356C64.97 7.94588 62.0049 5.08114 58.4465 3.14859C57.5524 2.71353 56.6004 2.40923 55.6197 2.24503C55.0711 2.24503 54.516 2.17403 53.9674 2.15467C53.6088 1.92206 53.268 1.66319 52.9477 1.38018C51.6569 0.579884 48.4299 -1.14334 47.5134 1.13493C46.9196 2.58064 48.3976 3.99407 48.9075 4.72338C49.3335 5.23941 49.7096 5.79481 50.0305 6.38206C50.1854 6.76285 50.2305 7.163 50.3854 7.5567C50.7095 8.56812 51.0931 9.55947 51.5343 10.5256C51.7734 11.0033 52.0473 11.4628 52.3539 11.9003C52.5282 12.1455 52.838 12.2552 52.9025 12.6554C52.6601 13.1828 52.4908 13.7409 52.3991 14.3141C51.5988 16.8182 51.9086 19.9162 53.0445 21.7556C53.393 22.3106 54.2385 23.5304 55.3615 23.0464C56.3554 22.6527 56.136 21.3877 56.4264 20.2841C56.491 20.013 56.4264 19.8387 56.5749 19.6387V19.6774C56.8846 20.3228 57.2203 20.8972 57.4849 21.5168C58.2683 22.67 59.2365 23.6862 60.3505 24.5244C60.8797 24.9245 61.2992 25.6086 61.964 25.8539V25.8152H61.9188C61.7691 25.645 61.5977 25.4953 61.4089 25.3698C60.9896 24.9595 60.6053 24.5147 60.2601 24.0403C59.3235 22.7681 58.4965 21.4187 57.7882 20.0065C57.4332 19.316 57.1428 18.5608 56.8395 17.8767C56.7039 17.6121 56.7039 17.2313 56.4845 17.0829C56.0677 17.5332 55.7059 18.0315 55.4067 18.5673C55.0371 19.6462 54.8199 20.7715 54.7613 21.9105C54.6709 21.9105 54.7161 21.9105 54.6709 21.9557C53.9674 21.7749 53.7222 21.0456 53.4576 20.426C52.7692 18.5258 52.6992 16.4566 53.2575 14.5141C53.4124 14.0495 54.0771 12.5779 53.8061 12.1455C53.677 11.7195 53.2317 11.5001 52.9929 11.1451C52.6824 10.7012 52.4165 10.2278 52.199 9.73171C51.6698 8.48608 51.3987 7.11782 50.8308 5.85929C50.5079 5.26194 50.1367 4.69207 49.7207 4.15542C49.2612 3.62182 48.8548 3.04468 48.5073 2.43219C48.3976 2.18694 48.2427 1.78679 48.417 1.52217C48.4304 1.44684 48.4678 1.37786 48.5236 1.32553C48.5795 1.27319 48.6507 1.24029 48.7267 1.23174C49.0172 0.986488 49.8304 1.29628 50.1208 1.43182C50.9064 1.7286 51.6557 2.11403 52.3539 2.58064C52.6637 2.80007 52.9993 3.22604 53.3866 3.3293H53.8512C54.5612 3.4842 55.355 3.37448 56.0198 3.57456C57.1409 3.94772 58.21 4.4617 59.2016 5.10416C62.1279 6.9751 64.5045 9.59 66.0881 12.6812C66.3592 13.1846 66.4689 13.6558 66.7335 14.185C67.1982 15.2693 67.7726 16.3794 68.2373 17.412C68.6453 18.4581 69.1715 19.4542 69.8056 20.3809C70.1412 20.8456 71.4643 21.0908 72.0581 21.3361C72.5792 21.5236 73.0898 21.7391 73.5877 21.9815C74.3364 22.4462 75.085 22.9754 75.795 23.4853C76.1435 23.7563 77.2536 24.3049 77.3181 24.7761L77.2923 24.7244Z" fill="white"/>
<path fill-rule="evenodd" clip-rule="evenodd" d="M54.7606 5.47185C54.4534 5.46874 54.1472 5.50783 53.8506 5.58802V5.6332H53.8958C54.1107 5.95081 54.348 6.25275 54.6057 6.53677C54.78 6.89174 54.9349 7.24671 55.1091 7.60168L55.1543 7.55651C55.3182 7.4264 55.4468 7.25708 55.528 7.06419C55.6092 6.8713 55.6405 6.66105 55.619 6.45287C55.4899 6.29797 55.4641 6.14307 55.3544 5.98818C55.2447 5.83328 54.9349 5.65902 54.7606 5.47831V5.47185Z" fill="white"/>
</svg>
