<svg width="92" height="55" viewBox="0 0 92 55" fill="none" xmlns="http://www.w3.org/2000/svg">
<path d="M83.2617 0.22168H9.13587C4.43948 0.22168 0.632812 4.02865 0.632812 8.72474V36.635C0.632812 41.3314 4.44008 45.1381 9.13587 45.1381H44.4129L60.0475 54.2217L56.9251 45.1381H83.2617C87.9581 45.1381 91.7647 41.3311 91.7647 36.635V8.72474C91.765 4.02835 87.9578 0.22168 83.2617 0.22168Z" fill="#9C5A90"/>
<path d="M13.8854 40.8956L13.8479 40.8953C13.3443 40.8893 12.8496 40.7618 12.4059 40.5235C11.9622 40.2853 11.5827 39.9434 11.2995 39.527C10.3916 38.1918 9.06055 35.1136 6.8094 23.0609C5.60273 16.6008 4.69572 10.5171 4.68677 10.4565C4.43273 8.74806 5.61198 7.15765 7.32046 6.90362C9.02775 6.64928 10.6193 7.82852 10.8734 9.5373C10.882 9.59664 11.7688 15.5411 12.9486 21.8649C13.6302 25.5177 14.2131 28.2427 14.6973 30.2702C17.6462 24.8358 21.2456 17.5278 22.8301 14.2274C23.1129 13.6378 23.5734 13.1517 24.1469 12.8375C24.7204 12.5232 25.378 12.3967 26.0271 12.4757C26.6763 12.5547 27.2843 12.8352 27.7657 13.2778C28.2471 13.7204 28.5776 14.3028 28.7108 14.943C29.2287 17.4202 30.5704 22.5784 32.4766 27.2602C33.1797 20.6037 34.5402 12.1561 37.1339 6.83891C37.891 5.28667 39.7635 4.64204 41.3157 5.39938C42.8679 6.15671 43.5126 8.02889 42.7552 9.58113C38.631 18.0359 38.0135 37.2955 38.0076 37.4893C37.9894 38.0997 37.793 38.6913 37.4425 39.1913C37.0921 39.6913 36.6029 40.0778 36.0353 40.303C35.4678 40.5283 34.8467 40.5824 34.2488 40.4588C33.6508 40.3352 33.1021 40.0393 32.6704 39.6075C29.8686 36.8057 27.3145 31.9772 25.0785 25.2562C24.9819 24.9655 24.888 24.6778 24.7965 24.3937C22.0552 29.8495 18.4515 36.7621 16.4285 39.5893C16.1388 39.9933 15.757 40.3226 15.3148 40.5497C14.8726 40.7769 14.3826 40.8954 13.8854 40.8956ZM62.4329 14.5047C61.1305 11.8597 58.8937 10.0308 55.9714 9.21767C52.6379 8.29247 49.0268 9.52299 46.3103 12.5139C43.0856 16.0561 40.7334 22.6953 43.7991 30.696C45.8991 36.1792 49.2016 37.1855 51.3355 37.1855C51.566 37.1855 51.781 37.173 51.9805 37.1545C57.6599 36.6154 62.4299 29.1008 63.3489 23.9479C64.0093 20.256 63.701 17.0782 62.4329 14.5047ZM57.1927 22.848C56.9028 24.4587 55.8965 26.5896 54.6225 28.2752C53.3138 30.0105 52.0302 30.8674 51.3916 30.9264C51.0022 30.9637 50.2794 30.1289 49.6408 28.4588C48.3572 25.1128 47.9272 20.0282 50.9369 16.7195C51.8341 15.732 52.8779 15.1741 53.7751 15.1741C53.9558 15.1741 54.1302 15.1959 54.2954 15.2427C57.6444 16.1744 57.7189 19.8914 57.1927 22.848ZM85.6653 14.5047C85.0111 13.1839 84.1262 12.0622 83.042 11.1742C81.9517 10.2863 80.6618 9.62586 79.2005 9.21767C75.87 8.29247 72.2592 9.52299 69.5394 12.5139C66.318 16.0561 63.9658 22.6953 67.0282 30.696C69.1282 36.1792 72.4307 37.1855 74.5646 37.1855C74.7951 37.1855 75.0134 37.173 75.2125 37.1545C80.889 36.6154 85.6587 29.1008 86.578 23.9479C87.2387 20.256 86.9301 17.0782 85.6653 14.5047ZM80.4218 22.848C80.1352 24.4587 79.1257 26.5896 77.8546 28.2752C76.543 30.0105 75.2594 30.8674 74.6207 30.9264C74.2343 30.9637 73.5085 30.1289 72.8699 28.4588C71.5892 25.1128 71.1596 20.0282 74.166 16.7195C75.0665 15.732 76.11 15.1741 77.0042 15.1741C77.1849 15.1741 77.3593 15.1959 77.5275 15.2427C80.8768 16.1744 80.9483 19.8914 80.4218 22.848Z" fill="white"/>
</svg>
