<svg width="55" height="55" viewBox="0 0 55 55" fill="none" xmlns="http://www.w3.org/2000/svg">
<path d="M16.9979 17.5449H14.0158L22.1458 40.5263L26.6971 27.52L23.1684 17.5449H20.0221V15.3551H33.9551V17.5449H30.6923L38.8221 40.5263L41.7445 32.175C45.578 21.4754 38.6025 18.1425 38.6025 15.7546C38.6025 13.3667 40.5382 11.4311 42.926 11.4311C43.0552 11.4311 43.1806 11.4381 43.3035 11.4495C39.2577 7.63024 33.8022 5.28809 27.7993 5.28809C19.9555 5.28809 13.0463 9.28628 8.99596 15.3551H16.9977V17.5449H16.9979ZM5.20801 27.8796C5.20801 36.5288 10.0694 44.0415 17.208 47.8378L7.0129 19.0184C5.85154 21.7392 5.20801 24.7342 5.20801 27.8796ZM47.4607 16.7472C47.7839 18.6499 47.686 20.7885 47.1901 22.9353H47.28L46.9384 23.9114C46.736 24.6162 46.4811 25.3372 46.1916 26.0456L38.4181 47.8232C45.5418 44.0223 50.3908 36.5177 50.3908 27.8795C50.3908 23.8317 49.3252 20.0331 47.4607 16.7472Z" fill="white"/>
<path d="M46.8917 8.78749C41.7921 3.68788 35.0117 0.879395 27.7997 0.879395C20.5878 0.879395 13.8075 3.68788 8.7079 8.78749C3.60829 13.8871 0.799805 20.6674 0.799805 27.8795C0.799805 35.0914 3.60829 41.8717 8.7079 46.9713C13.8075 52.0709 20.5879 54.8794 27.7999 54.8794C35.0118 54.8794 41.7921 52.0709 46.8918 46.9713C51.9914 41.8717 54.7999 35.0913 54.7999 27.8795C54.7998 20.6674 51.9913 13.8871 46.8917 8.78749ZM27.7997 52.9747C13.9621 52.9747 2.70445 41.7171 2.70445 27.8795C2.70445 14.0419 13.9621 2.78404 27.7997 2.78404C41.6373 2.78404 52.895 14.0419 52.895 27.8795C52.895 41.7171 41.6375 52.9747 27.7997 52.9747Z" fill="white"/>
</svg>
