<svg width="20" height="20" viewBox="0 0 20 20" fill="none" xmlns="http://www.w3.org/2000/svg">
<path d="M20 17.2727V13.6364C20 13.3953 19.9122 13.164 19.7559 12.9935C19.5996 12.8231 19.3877 12.7273 19.1667 12.7273C18.9457 12.7273 18.7337 12.8231 18.5774 12.9935C18.4211 13.164 18.3333 13.3953 18.3333 13.6364V17.2727C18.3333 17.5138 18.2455 17.7451 18.0893 17.9156C17.933 18.086 17.721 18.1818 17.5 18.1818H2.5C2.27899 18.1818 2.06702 18.086 1.91074 17.9156C1.75446 17.7451 1.66667 17.5138 1.66667 17.2727V13.6364C1.66667 13.3953 1.57887 13.164 1.42259 12.9935C1.26631 12.8231 1.05435 12.7273 0.833333 12.7273C0.61232 12.7273 0.400358 12.8231 0.244078 12.9935C0.0877975 13.164 0 13.3953 0 13.6364V17.2727C0 17.996 0.263392 18.6897 0.732233 19.2012C1.20107 19.7127 1.83696 20 2.5 20H17.5C18.163 20 18.7989 19.7127 19.2678 19.2012C19.7366 18.6897 20 17.996 20 17.2727ZM14.6833 12.5273L10.5167 16.1636C10.3695 16.2905 10.1875 16.3595 10 16.3595C9.81249 16.3595 9.63046 16.2905 9.48333 16.1636L5.31667 12.5273C5.16485 12.3709 5.07235 12.1581 5.05747 11.931C5.0426 11.7038 5.10643 11.4788 5.23633 11.3005C5.36624 11.1222 5.55276 11.0036 5.75899 10.9682C5.96522 10.9327 6.17613 10.983 6.35 11.1091L9.16667 13.5636V0.909091C9.16667 0.667985 9.25446 0.436754 9.41074 0.266267C9.56702 0.0957791 9.77899 0 10 0C10.221 0 10.433 0.0957791 10.5893 0.266267C10.7455 0.436754 10.8333 0.667985 10.8333 0.909091V13.5636L13.65 11.1091C13.7339 11.0227 13.8334 10.9562 13.9421 10.9139C14.0507 10.8716 14.1663 10.8544 14.2814 10.8634C14.3965 10.8724 14.5086 10.9073 14.6107 10.966C14.7128 11.0248 14.8026 11.106 14.8744 11.2045C14.9462 11.3031 14.9984 11.4168 15.0278 11.5385C15.0572 11.6603 15.0632 11.7873 15.0452 11.9117C15.0272 12.036 14.9858 12.1549 14.9235 12.2609C14.8612 12.3669 14.7794 12.4576 14.6833 12.5273Z" fill="white"/>
</svg>
