<svg width="18" height="19" viewBox="0 0 18 19" fill="none" xmlns="http://www.w3.org/2000/svg">
<path d="M6.50441 10.4306C6.50441 10.2051 6.31737 10.0225 6.08658 10.0225H4.62854C4.39802 10.0225 4.21094 10.2051 4.21094 10.4306V11.8562C4.21094 12.0819 4.39802 12.2647 4.62854 12.2647H6.08658C6.31737 12.2647 6.50441 12.0819 6.50441 11.8562V10.4306ZM10.1483 10.4306C10.1483 10.2051 9.96119 10.0225 9.73085 10.0225H8.27262C8.0421 10.0225 7.85502 10.2051 7.85502 10.4306V11.8562C7.85502 12.0819 8.0421 12.2647 8.27262 12.2647H9.73085C9.96119 12.2647 10.1483 12.0819 10.1483 11.8562V10.4306ZM13.7923 10.4306C13.7923 10.2051 13.6052 10.0225 13.3747 10.0225H11.9167C11.6859 10.0225 11.4988 10.2051 11.4988 10.4306V11.8562C11.4988 12.0819 11.6859 12.2647 11.9167 12.2647H13.3747C13.6052 12.2647 13.7923 12.0819 13.7923 11.8562V10.4306ZM6.50441 13.9941C6.50441 13.7682 6.31737 13.5857 6.08658 13.5857H4.62854C4.39802 13.5857 4.21094 13.7682 4.21094 13.9941V15.4193C4.21094 15.645 4.39802 15.8277 4.62854 15.8277H6.08658C6.31737 15.8277 6.50441 15.6449 6.50441 15.4193V13.9941ZM10.1483 13.9941C10.1483 13.7682 9.96119 13.5857 9.73085 13.5857H8.27262C8.0421 13.5857 7.85502 13.7682 7.85502 13.9941V15.4193C7.85502 15.645 8.0421 15.8277 8.27262 15.8277H9.73085C9.96119 15.8277 10.1483 15.6449 10.1483 15.4193V13.9941ZM13.7923 13.9941C13.7923 13.7682 13.6052 13.5857 13.3749 13.5857H11.9167C11.6859 13.5857 11.4988 13.7682 11.4988 13.9941V15.4193C11.4988 15.645 11.6859 15.8277 11.9167 15.8277H13.3749C13.6052 15.8277 13.7923 15.6449 13.7923 15.4193V13.9941Z" fill="white"/>
<path d="M16.3978 2.50428V4.68167C16.3978 5.66583 15.5813 6.45891 14.575 6.45891H13.4251C12.4187 6.45891 11.5914 5.66583 11.5914 4.68167V2.49646H6.40859V4.68167C6.40859 5.66583 5.58131 6.45891 4.57506 6.45891H3.42495C2.41867 6.45891 1.60221 5.66583 1.60221 4.68167V2.50428C0.722708 2.5302 0 3.24182 0 4.11651V16.8771C0 17.7682 0.738659 18.5 1.64999 18.5H16.35C17.26 18.5 18 17.7667 18 16.8771V4.11651C18 3.24182 17.2773 2.5302 16.3978 2.50428ZM15.8637 16.0824C15.8637 16.4675 15.5444 16.78 15.1504 16.78H2.81816C2.42417 16.78 2.10485 16.4675 2.10485 16.0824V9.49114C2.10485 9.10588 2.42413 8.79345 2.81816 8.79345H15.1504C15.5444 8.79345 15.8637 9.10588 15.8637 9.49114L15.8637 16.0824Z" fill="white"/>
<path d="M3.42203 5.29155H4.55943C4.90466 5.29155 5.18458 5.01824 5.18458 4.68066V1.11111C5.18458 0.773492 4.90466 0.5 4.55943 0.5H3.42203C3.07676 0.5 2.79688 0.773492 2.79688 1.11111V4.68066C2.79688 5.01824 3.07676 5.29155 3.42203 5.29155ZM13.4116 5.29155H14.549C14.894 5.29155 15.1739 5.01824 15.1739 4.68066V1.11111C15.174 0.773492 14.8941 0.5 14.549 0.5H13.4116C13.0664 0.5 12.7865 0.773492 12.7865 1.11111V4.68066C12.7865 5.01824 13.0664 5.29155 13.4116 5.29155Z" fill="white"/>
</svg>
