<svg width="20" height="22" viewBox="0 0 20 22" fill="none" xmlns="http://www.w3.org/2000/svg">
<g clip-path="url(#clip0_2675_8269)">
<path d="M19.0408 5.50862C17.8503 5.51135 16.6916 5.11943 15.7408 4.39249C14.667 3.57274 13.9278 2.381 13.6638 1.04409C13.5963 0.700201 13.5608 0.350632 13.5578 0L10.0178 0V9.81588V15.1936C10.0189 15.8822 9.80484 16.5535 9.40631 17.1109C9.00779 17.6683 8.44536 18.0832 7.79986 18.2958C7.15435 18.5085 6.45902 18.508 5.81379 18.2945C5.16856 18.081 4.60667 17.6654 4.20887 17.1075C3.81106 16.5495 3.59784 15.878 3.59984 15.1893C3.60184 14.5007 3.81896 13.8305 4.21999 13.2749C4.62103 12.7194 5.18532 12.3071 5.83178 12.0975C6.47824 11.8878 7.17356 11.8915 7.81782 12.108V8.45928C7.47979 8.40854 7.13853 8.3831 6.79682 8.38317C5.83357 8.37976 4.88063 8.58438 4.00131 8.98342C3.12199 9.38247 2.33643 9.96681 1.69682 10.6976C0.559035 11.9914 -0.0444825 13.6798 0.0113704 15.4128C0.0672233 17.1458 0.778163 18.7906 1.99682 20.0062C2.19847 20.2084 2.4122 20.3978 2.63682 20.5734C3.82959 21.504 5.29323 22.0061 6.79782 22.001C7.13953 22.0011 7.48079 21.9757 7.81882 21.9249C9.2483 21.7116 10.5729 21.0396 11.5988 20.0072C12.2254 19.3823 12.7233 18.6374 13.0635 17.8155C13.4038 16.9937 13.5796 16.1114 13.5808 15.22L13.5618 7.19094C14.1718 7.66851 14.84 8.06412 15.5498 8.36796C16.6572 8.84287 17.8476 9.0865 19.0498 9.08431V5.50761L19.0408 5.50862Z" fill="white"/>
</g>
<defs>
<clipPath id="clip0_2675_8269">
<rect width="19.049" height="22" fill="white"/>
</clipPath>
</defs>
</svg>
