<svg width="22" height="22" viewBox="0 0 22 22" fill="none" xmlns="http://www.w3.org/2000/svg">
<g clip-path="url(#clip0_2675_8276)">
<path d="M21.7397 6.22498C21.7233 5.34585 21.5593 4.47599 21.2547 3.6528C20.9857 2.94984 20.5752 2.31154 20.0493 1.77867C19.5235 1.2458 18.8938 0.830079 18.2007 0.558067C17.3906 0.249852 16.5347 0.0834494 15.6697 0.0659533C14.5527 0.012176 14.1947 0 11.3657 0C8.53669 0 8.17769 0.012176 7.06569 0.0618947C6.20062 0.079096 5.34474 0.245508 4.53469 0.554008C3.83674 0.819781 3.20486 1.23787 2.68369 1.77871C2.15485 2.30802 1.74544 2.94742 1.48369 3.6528C1.17866 4.4746 1.01331 5.34297 0.994686 6.22092C0.941686 7.3543 0.929688 7.71451 0.929688 10.584C0.929688 13.4535 0.941688 13.8187 0.990688 14.9471C1.0076 15.8248 1.17161 16.6932 1.47569 17.5152C1.74422 18.2186 2.15444 18.8574 2.68014 19.3908C3.20583 19.9242 3.83543 20.3405 4.52869 20.613C5.33884 20.9211 6.19466 21.0875 7.05969 21.1051C8.17269 21.1548 8.52769 21.167 11.3597 21.167C14.1917 21.167 14.5467 21.1548 15.6597 21.1051C16.5258 21.09 17.3831 20.9253 18.1947 20.618C18.8882 20.3459 19.518 19.9298 20.0437 19.3964C20.5694 18.8629 20.9795 18.2239 21.2477 17.5202C21.5513 16.6982 21.7153 15.8298 21.7327 14.9521C21.7817 13.8228 21.7937 13.4636 21.7937 10.5891C21.7937 7.71451 21.7887 7.3543 21.7397 6.22498ZM19.8607 14.8689C19.8538 15.5399 19.7323 16.2045 19.5017 16.8333C19.3277 17.2899 19.0617 17.7046 18.7205 18.0508C18.3794 18.3969 17.9707 18.6669 17.5207 18.8434C16.9009 19.0771 16.2459 19.2003 15.5847 19.2076C14.4847 19.2574 14.1537 19.2695 11.3697 19.2695C8.58569 19.2695 8.25169 19.2574 7.15469 19.2076C6.49344 19.2008 5.8384 19.0775 5.21869 18.8434C4.76915 18.668 4.3609 18.3988 4.02034 18.0533C3.67979 17.7077 3.41452 17.2935 3.24169 16.8374C3.0114 16.2084 2.88995 15.5439 2.88269 14.873C2.83369 13.7568 2.82169 13.421 2.82169 10.5962C2.82169 7.77133 2.83369 7.43243 2.88269 6.31934C2.88947 5.6484 3.01094 4.98375 3.24169 4.35495C3.40771 3.89378 3.67555 3.47728 4.02469 3.13735C4.3617 2.78675 4.7717 2.51704 5.22469 2.34794C5.84454 2.11434 6.4995 1.9911 7.16069 1.98367C8.26069 1.93395 8.59169 1.92178 11.3757 1.92178C14.1597 1.92178 14.4937 1.93395 15.5907 1.98367C16.2519 1.99061 16.907 2.11386 17.5267 2.34794C17.9801 2.51613 18.3903 2.78597 18.7267 3.13735C19.0724 3.47931 19.3386 3.8953 19.5057 4.35495C19.7359 4.98389 19.8574 5.64846 19.8647 6.31934C19.9137 7.43548 19.9257 7.77133 19.9257 10.5962C19.9257 13.421 19.9097 13.7528 19.8607 14.8689Z" fill="white"/>
<path d="M11.2928 5.00023C10.1896 5.00023 9.11117 5.33217 8.19387 5.95408C7.27658 6.57598 6.56163 7.45993 6.13945 8.49412C5.71726 9.52832 5.6068 10.6663 5.82203 11.7642C6.03725 12.8621 6.56851 13.8706 7.3486 14.6621C8.1287 15.4537 9.12261 15.9927 10.2046 16.2111C11.2867 16.4295 12.4082 16.3174 13.4275 15.889C14.4467 15.4606 15.3179 14.7352 15.9308 13.8045C16.5437 12.8737 16.8708 11.7794 16.8708 10.66C16.8703 9.15913 16.2825 7.71984 15.2365 6.65854C14.1905 5.59724 12.7721 5.00076 11.2928 5.00023ZM11.2928 14.3352C10.5771 14.3352 9.87738 14.1198 9.28224 13.7163C8.6871 13.3128 8.22324 12.7393 7.94933 12.0683C7.67541 11.3973 7.60375 10.659 7.74339 9.94669C7.88303 9.23438 8.2277 8.58008 8.73383 8.06653C9.23995 7.55298 9.8848 7.20325 10.5868 7.06156C11.2888 6.91987 12.0165 6.99259 12.6778 7.27052C13.3391 7.54845 13.9043 8.01911 14.3019 8.62298C14.6996 9.22685 14.9118 9.93681 14.9118 10.6631C14.9111 11.6364 14.5294 12.5697 13.8508 13.2577C13.1722 13.9457 12.2521 14.3321 11.2928 14.3321V14.3352ZM18.3928 4.77903C18.3928 5.03992 18.3166 5.29494 18.1738 5.51186C18.0309 5.72878 17.8279 5.89785 17.5903 5.99769C17.3528 6.09752 17.0914 6.12365 16.8392 6.07275C16.5871 6.02185 16.3554 5.89622 16.1736 5.71175C15.9918 5.52728 15.868 5.29224 15.8178 5.03637C15.7677 4.78049 15.7934 4.51527 15.8918 4.27424C15.9902 4.03322 16.1568 3.82721 16.3706 3.68227C16.5844 3.53732 16.8357 3.45996 17.0928 3.45996C17.2636 3.4597 17.4327 3.49355 17.5905 3.55959C17.7483 3.62564 17.8918 3.72257 18.0127 3.84487C18.1336 3.96717 18.2296 4.11243 18.2951 4.27237C18.3607 4.4323 18.3946 4.60378 18.3948 4.777L18.3928 4.77903Z" fill="white"/>
</g>
<defs>
<clipPath id="clip0_2675_8276">
<rect width="20.863" height="21.172" fill="white" transform="translate(0.929688)"/>
</clipPath>
</defs>
</svg>
