<svg width="21" height="15" viewBox="0 0 21 15" fill="none" xmlns="http://www.w3.org/2000/svg">
<g clip-path="url(#clip0_2675_8273)">
<path d="M13.8515 7.51031L12.1905 9.36208C12.0289 9.54158 11.8322 9.68495 11.6129 9.78303C11.3937 9.88112 11.1567 9.93178 10.917 9.93178C10.6774 9.93178 10.4404 9.88112 10.2211 9.78303C10.0019 9.68495 9.80516 9.54158 9.64352 9.36208L7.98253 7.51031L2.01953 14.1604C2.24421 14.2788 2.49337 14.3414 2.74653 14.3431H19.0895C19.3424 14.3413 19.5912 14.2787 19.8155 14.1604L13.8515 7.51031Z" fill="white"/>
<path d="M19.1643 0.0586548H2.66434C2.41069 0.0595555 2.16025 0.116332 1.93034 0.22506L8.36435 6.73516L10.4563 8.85176C10.5838 8.96046 10.7449 9.02006 10.9113 9.02006C11.0778 9.02006 11.2389 8.96046 11.3663 8.85176L13.4643 6.7382L19.9003 0.228104C19.6701 0.117884 19.4189 0.0600514 19.1643 0.0586548ZM1.08935 1.05303C0.968018 1.29481 0.903982 1.56199 0.902344 1.83331V12.4772C0.903908 12.7485 0.967949 13.0157 1.08935 13.2574L7.12234 7.15523L1.08935 1.05303ZM20.7363 1.05303L14.7033 7.15625L20.7363 13.2585C20.8582 13.0168 20.9226 12.7496 20.9243 12.4782V1.83229C20.9233 1.56146 20.86 1.29462 20.7393 1.05303H20.7363Z" fill="white"/>
</g>
<defs>
<clipPath id="clip0_2675_8273">
<rect width="20.023" height="14.2835" fill="white" transform="translate(0.90625 0.0586548)"/>
</clipPath>
</defs>
</svg>
